<?xml version="1.0" encoding="UTF-8" standalone="no"?><!DOCTYPE svg PUBLIC "-//W3C//DTD SVG 1.1//EN" "http://www.w3.org/Graphics/SVG/1.1/DTD/svg11.dtd"><svg width="100%" height="100%" viewBox="0 0 266 292" version="1.1" xmlns="http://www.w3.org/2000/svg" xmlns:xlink="http://www.w3.org/1999/xlink" xml:space="preserve" xmlns:serif="http://www.serif.com/" style="fill-rule:evenodd;clip-rule:evenodd;stroke-linecap:round;stroke-linejoin:round;stroke-miterlimit:1.5;"><g id="_-机器猫" serif:id=" 机器猫"><clipPath id="_clip1"><ellipse cx="137.398" cy="100.612" rx="112.12" ry="109.933"/></clipPath><g clip-path="url(#_clip1)"><g><path d="M140.536,0.6c59.718,0 101.171,41.56 101.171,100.622c0,56.437 -46.495,94.978 -75.151,110.946c-28.256,15.746 -80.05,6.849 -91.644,-25.525c-11.594,-32.375 -34.732,-95.219 -21.656,-128.843c12.25,-31.499 41.562,-57.2 87.28,-57.2Z" style="fill:#00adf0;stroke:#000;stroke-width:1.2px;"/><path d="M99.193,33.082c50.531,-0 120.092,18.812 120.092,84.436c0,36.531 -19.906,57.094 -42.655,76.125c-22.75,19.031 -92.487,9.262 -109.155,-26.25c-15.094,-32.156 -19.25,-50.968 -19.25,-72.624c-0,-31.937 16.625,-61.687 50.968,-61.687Z" style="fill:#fff;stroke:#000;stroke-width:1.2px;"/></g><path d="M67.606,171.355c-3.9,-12.763 -21.094,-46.798 -27.476,-48.571c-6.917,-1.921 -20.385,10.813 -20.385,10.813c-0,0 9.749,58.32 14.713,63.815c4.963,5.496 15.953,11.345 15.953,11.345c-2.479,13.103 -4.198,26.015 -4.786,38.644l60.625,43.962l80.969,-52.138l-4.088,-44.095l-73.868,-3.745c0,0 -29.78,-11.699 -41.657,-20.03Z" style="fill:#00adf0;"/><g><path d="M86.396,184.295c-21.449,4.786 -34.744,32.085 -26.767,59.738c8.903,30.862 86.328,13.472 86.328,13.472c-0,0 22.656,-40.514 18.258,-46.798c-3.722,-5.318 -7.268,-9.395 -11.522,-13.295" style="fill:#fff;stroke:#000;stroke-width:1.2px;"/><path d="M70.265,222.761c7.77,4.166 17.106,6.943 26.767,9.218l-26.235,6.736c-0.679,-4.865 -0.74,-10.143 -0.532,-15.954Z" style="fill:none;stroke:#000;stroke-width:1.2px;"/></g><path d="M118.88,187.955c23.36,4.986 51.554,4.695 68.687,1.531c11.391,-2.103 15.713,4.594 -0.656,7.438c-16.797,2.918 -47.6,3.679 -71.167,0.003c-21.942,-3.422 -40.075,-15.578 -49.047,-26.499c-7.669,-9.334 -12.086,-19.48 -2.504,-8.941c10.793,11.869 27.861,20.743 54.687,26.468Z" style="fill:#d12140;stroke:#000;stroke-width:1.2px;"/><g><path d="M81.227,142.684c8.946,-10.878 25.445,-15.759 44.872,-15.759c19.452,-0 47.517,14.094 56.592,23.036c-11.549,15.143 -29.573,28.807 -52.436,28.807c-21.517,-0 -37.983,-16.8 -49.028,-36.084Z" style="fill:#f57c35;"/><path d="M81.227,142.684c-9.827,-16.927 -15.437,-35.787 -16.666,-46.748c62.75,15.541 128.639,11.457 131.537,15.895c3.549,5.434 -1.505,22.564 -13.407,38.13c-9.075,-8.942 -37.14,-23.036 -56.592,-23.036c-19.427,-0 -35.926,4.881 -44.872,15.759Z" style="fill:#e51837;"/><path d="M81.227,142.684c8.946,-10.878 25.445,-15.759 44.872,-15.759c19.452,-0 47.517,14.094 56.592,23.036c-11.549,15.143 -29.573,28.807 -52.436,28.807c-21.517,-0 -37.983,-16.8 -49.028,-36.084Z" style="fill:none;stroke:#000;stroke-width:1.2px;"/><path d="M81.227,142.684c-9.827,-16.927 -15.437,-35.787 -16.666,-46.748c62.75,15.541 128.639,11.457 131.537,15.895c3.549,5.434 -1.505,22.564 -13.407,38.13" style="fill:none;stroke:#000;stroke-width:1.2px;"/><path d="M70.318,61.738c-0.656,-4.156 -6.562,-8.094 -13.125,-8.094c-6.562,0 -14.874,5.906 -14.874,19.031c-0,13.125 4.701,18.531 14.437,21.219c2.593,0.716 5.196,1.396 7.805,2.042" style="fill:#fff;stroke:#000;stroke-width:1.2px;"/></g><g><path d="M67.606,171.355c-3.9,-12.763 -21.094,-46.798 -27.476,-48.571c-6.917,-1.921 -20.385,10.813 -20.385,10.813c-0,0 9.749,58.32 14.713,63.815c4.963,5.496 15.953,11.345 15.953,11.345c-2.479,13.103 -4.198,26.015 -4.786,38.644" style="fill:#00adf0;stroke:#000;stroke-width:1.2px;"/><ellipse cx="21.694" cy="115.693" rx="21.094" ry="22.513" style="fill:#fff;stroke:#000;stroke-width:1.2px;"/></g><g><path d="M173.256,201.312c16.624,-18.836 34.035,-32.439 49.634,-39.53c15.599,-7.09 27.121,16.131 22.158,23.222c-4.963,7.091 -11.522,13.472 -17.195,18.258c-5.672,4.786 -57.788,12.941 -57.788,12.941" style="fill:#00adf0;stroke:#000;stroke-width:1.2px;"/><ellipse cx="242.123" cy="163.998" rx="22.779" ry="24.197" style="fill:#fff;stroke:#000;stroke-width:1.2px;"/></g><g><ellipse cx="114.517" cy="206.413" rx="15.784" ry="16.758" style="fill:#fde047;stroke:#000;stroke-width:1.2px;"/><path d="M116.534,195.96c5.65,0.995 13.943,5.07 14.602,7.046c0.417,1.252 0.174,2.882 -1.345,2.689c-0.695,-0.089 -4.959,-3.871 -14.37,-5.192c-7.492,-1.052 -14.712,0.403 -15.668,-0.139c-1.473,-0.836 -0.759,-2.791 0.464,-3.477c1.993,-1.118 8.946,-2.225 16.317,-0.927Z" style="fill:#fde047;stroke:#000;stroke-width:1.2px;"/><path d="M116.121,205.604c2.662,0.843 4.332,3.082 3.725,4.997c-0.606,1.914 -3.26,2.784 -5.922,1.941c-2.662,-0.843 -4.331,-3.082 -3.725,-4.996c0.606,-1.915 3.26,-2.785 5.922,-1.942Z" style="fill:#797162;stroke:#000;stroke-width:1.2px;"/><path d="M114.359,212.816l-1.766,10.169" style="fill:none;stroke:#000;stroke-width:1.2px;"/></g><g><path d="M128.15,5.991c7.54,-0 13.059,5.662 13.441,15.982c0.132,3.549 -1.291,35.98 -26.391,35.98c-11.903,0 -16.146,-9.917 -16.146,-20.654c0,-10.736 9.917,-31.308 29.096,-31.308Z" style="fill:#fff;stroke:#000;stroke-width:1.2px;"/><path d="M163.392,14.76c9.344,0 18.195,9.754 18.195,24.752c0,14.999 -8.441,31.883 -23.85,31.883c-15.408,-0 -20.981,-11.393 -20.981,-21.638c-0,-10.245 7.868,-34.997 26.636,-34.997Z" style="fill:#fff;stroke:#000;stroke-width:1.2px;"/><path d="M132.316,32.646c2.913,1.048 3.845,5.88 2.081,10.783c-1.764,4.903 -5.561,8.032 -8.474,6.984c-2.913,-1.048 -3.846,-5.88 -2.082,-10.783c1.765,-4.903 5.562,-8.032 8.475,-6.984Z"/><path d="M130.778,38.055c1.457,0.324 2.234,2.415 1.733,4.667c-0.501,2.252 -2.09,3.817 -3.547,3.493c-1.457,-0.324 -2.234,-2.415 -1.733,-4.667c0.5,-2.252 2.09,-3.817 3.547,-3.493Z" style="fill:#fff;"/><path d="M156.963,39.011c3.155,0.838 4.591,5.76 3.204,10.984c-1.387,5.224 -5.075,8.785 -8.231,7.947c-3.155,-0.837 -4.591,-5.759 -3.203,-10.983c1.387,-5.224 5.075,-8.785 8.23,-7.948Z"/><path d="M155.052,44c1.472,0.25 2.353,2.3 1.967,4.574c-0.387,2.274 -1.895,3.918 -3.367,3.668c-1.471,-0.25 -2.353,-2.3 -1.966,-4.574c0.386,-2.275 1.895,-3.918 3.366,-3.668Z" style="fill:#fff;"/></g><g><path d="M124.925,52.876c7.716,-0.608 14.504,5.54 15.148,13.721c0.645,8.181 -5.096,15.317 -12.811,15.925c-7.716,0.608 -14.504,-5.54 -15.149,-13.721c-0.644,-8.181 5.096,-15.317 12.812,-15.925Z" style="fill:#e21932;stroke:#000;stroke-width:1.2px;"/><ellipse cx="126.34" cy="64.493" rx="5.179" ry="5.391" style="fill:#fff;"/></g><path d="M120.076,81.067c-3.027,7.679 -4.767,15.573 -5.539,23.628" style="fill:none;stroke:#000;stroke-width:1.2px;"/><g><path d="M96.144,64.739l-27.765,-39.885" style="fill:none;stroke:#000;stroke-width:1.2px;"/><path d="M92.339,73.9l-42.775,-27.835" style="fill:none;stroke:#000;stroke-width:1.2px;"/><path d="M89.379,84.964l-44.536,-12.05" style="fill:none;stroke:#000;stroke-width:1.2px;"/><path d="M159.707,79.82l52.077,-13.812" style="fill:none;stroke:#000;stroke-width:1.2px;"/><path d="M160.553,89.967l54.331,-0.775" style="fill:none;stroke:#000;stroke-width:1.2px;"/><path d="M160.553,100.96l54.402,10.43" style="fill:none;stroke:#000;stroke-width:1.2px;"/></g></g></g></svg>