<?xml version="1.0" encoding="UTF-8" standalone="no"?><!DOCTYPE svg PUBLIC "-//W3C//DTD SVG 1.1//EN" "http://www.w3.org/Graphics/SVG/1.1/DTD/svg11.dtd"><svg width="100%" height="100%" viewBox="0 0 751 422" version="1.1" xmlns="http://www.w3.org/2000/svg" xmlns:xlink="http://www.w3.org/1999/xlink" xml:space="preserve" xmlns:serif="http://www.serif.com/" style="fill-rule:evenodd;clip-rule:evenodd;stroke-linecap:round;stroke-linejoin:round;stroke-miterlimit:1.5;"><g id="bg"><rect x="-5.151" y="-4.372" width="765.767" height="428.841" style="fill:#6ccbff;"/></g><g id="胖虎"><path d="M537.02,197.325C543.414,198.737 551.385,202.972 556.285,206.044C561.184,209.117 591.825,198.405 591.825,198.405L587.922,174.323L516.094,154.892L508.371,179.804C508.371,179.804 531,195.996 537.02,197.325Z" style="fill:#93492e;stroke:#000;stroke-width:1.2px;"/><path d="M505.382,173.327C505.133,179.14 509.534,202.473 509.534,202.473C509.534,202.473 536.023,213.684 537.518,206.376C539.013,199.069 537.767,188.606 536.521,182.046" style="fill:#93492e;stroke:#000;stroke-width:1.2px;"/><path d="M512.938,203.802C506.877,206.127 501.894,210.196 503.057,214.514C504.219,218.832 515.014,221.157 522.737,220.493C530.46,219.829 539.926,214.763 540.258,211.359C540.59,207.954 538.93,205.297 536.771,204.134C534.612,202.972 519,201.477 512.938,203.802Z" style="fill:#436c8e;stroke:#000;stroke-width:1.2px;"/><rect x="542.116" y="96.713" width="53.016" height="36.318" style="fill:#fdd655;"/><rect x="589.679" y="98.398" width="5.469" height="10.536" style="fill:#433e2b;stroke:#000;stroke-width:1.2px;"/><path d="M552.702,96.139C550.226,93.13 548.12,88.356 546.869,85.473C546.662,84.995 545.591,85.194 545.591,85.194C546.618,79.828 549.225,65.728 548.467,59.627C547.786,54.143 532.927,49.799 529.851,58.029C526.775,66.258 522.501,82.357 522.501,91.426C522.501,100.494 528.173,116.553 534.885,124.023" style="fill:#fdd655;stroke:#000;stroke-width:1.2px;"/><g><path d="M541.294,109.816C539.391,117.803 531.172,129.458 528.386,135.402C526.489,139.449 517.257,154.897 523.138,157.644C530.191,160.938 534.752,169.291 538.888,172.258C541.247,173.95 548.735,178.933 553.275,181.558C561.767,186.469 578.309,190.676 589.819,190.195C593.816,190.028 596.359,187.721 598.055,186.876C599.275,186.268 599.663,185.526 599.663,184.391C599.663,180.761 598.969,179.759 598.969,176.13C598.969,172.047 600.499,169.21 600.499,162.288C600.499,158.108 601.234,147.128 601.653,141.196" style="fill:#fdd655;"/><path d="M533.871,125.612C543.41,130.354 563.262,137.601 571.874,139.114C580.7,140.664 589.267,157.912 579.865,157.004C562.886,155.365 538.835,145.448 527.258,137.613L528.386,135.402C529.552,132.913 531.672,129.422 533.871,125.612Z" style="fill:#ea6c7e;"/><path d="M533.871,125.612C543.41,130.354 563.262,137.601 571.874,139.114C580.7,140.664 589.267,157.912 579.865,157.004C562.886,155.365 538.835,145.448 527.258,137.613" style="fill:none;stroke:#000;stroke-width:1.2px;"/><path d="M541.294,109.816C539.391,117.803 531.172,129.458 528.386,135.402C526.489,139.449 517.257,154.897 523.138,157.644C530.191,160.938 534.752,169.291 538.888,172.258C541.247,173.95 548.735,178.933 553.275,181.558C561.767,186.469 578.309,190.676 589.819,190.195C593.816,190.028 596.359,187.721 598.055,186.876C599.275,186.268 599.663,185.526 599.663,184.391C599.663,180.761 598.969,179.759 598.969,176.13C598.969,172.047 600.499,169.21 600.499,162.288C600.499,158.108 601.234,147.128 601.653,141.196" style="fill:none;stroke:#000;stroke-width:1.2px;"/></g><path d="M595.113,108.609C597.713,108.145 599.947,108.322 601.799,109.166C609.939,112.878 616.844,127.833 621.58,138.838C627.41,152.382 620.559,158.387 613.454,161.963C606.35,165.538 597.016,163.774 592.048,161.452" style="fill:#fdd655;stroke:#000;stroke-width:1.2px;"/><path d="M601.653,141.196C601.821,138.824 601.938,137.259 601.938,137.259" style="fill:#fdd655;stroke:#000;stroke-width:1.2px;"/><path d="M604.115,136.767L597.484,137.007" style="fill:none;stroke:#000;stroke-width:1.2px;"/><path d="M552.67,94.886C551.694,94.886 550.718,96.931 550.718,100.929C550.718,109.158 563.27,119.757 577.263,119.757C590.326,119.757 596.09,110.785 596.09,106.647C596.09,105.346 596.044,103.858 595.114,103.904C594.184,103.951 592.302,107.1 590.419,109.158C576.945,123.881 566.105,94.886 552.67,94.886Z" style="fill:#fdd655;stroke:#000;stroke-width:1.2px;"/><g><path d="M577.947,154.273C574.66,153.821 574.902,147.346 575.995,144.331C577.104,141.273 591.222,143.087 591.222,143.087C591.222,143.087 596.805,148.312 596.805,152.627C596.805,156.262 594.248,163.253 589.933,163.253C585.619,163.253 577.669,158.259 577.669,155.463C577.664,155.088 577.768,154.664 577.947,154.273L577.947,154.273" style="fill:#fbbc7d;"/><path d="M577.947,154.273C574.66,153.821 574.902,147.346 575.995,144.331C577.104,141.273 591.222,143.087 591.222,143.087C591.222,143.087 596.805,148.312 596.805,152.627C596.805,156.262 594.248,163.253 589.933,163.253C585.619,163.253 577.669,158.259 577.669,155.463C577.658,154.584 578.24,153.439 578.999,153.079" style="fill:none;stroke:#000;stroke-width:1.2px;"/><path d="M587.257,155.623C584.461,155.822 579.251,154.255 578.548,152.427C578.149,151.388 578.233,149.994 579.229,149.147" style="fill:none;stroke:#000;stroke-width:1.2px;"/><path d="M587.736,150.19C584.5,150.03 579.734,150.023 578.828,148.791C578.103,147.806 578.558,146.131 579.187,145.156C579.85,144.129 589.016,144.396 589.016,144.396" style="fill:none;stroke:#000;stroke-width:1.2px;"/></g><g><path d="M565.596,68.486C560.008,68.181 557.044,73.939 558.837,78.294C560.694,82.803 563.497,78.453 563.497,78.453" style="fill:#fbbc7d;stroke:#000;stroke-width:1.2px;"/><path d="M568.628,60.758C568.806,62.552 569.204,63.984 569.804,65.079C571.865,63.436 573.672,61.878 575.223,60.405C575.51,62.63 575.949,64.551 576.577,66.095C578.722,64.605 581.069,63.215 583.554,61.895C583.554,61.895 583.893,68.737 584.841,68.94C585.789,69.143 590.531,65.621 590.531,65.621C590.606,67.857 590.962,70.141 591.547,72.462C591.547,72.462 595.137,69.414 595.95,69.821C596.763,70.227 596.831,84.452 596.627,85.942C596.533,86.635 598.109,87.123 599.827,87.422C599.015,87.747 594.503,89.894 594.257,96.306C593.986,103.35 589.989,114.933 578.677,114.933C573.054,114.933 566.988,112.353 563.201,109.497C555.994,104.063 553.75,99.962 553.75,91.97C553.75,77.475 560.321,77.881 562.285,74.224C563.658,71.666 564.866,64.706 568.628,60.758Z" style="fill:#fbbc7d;"/><path d="M568.628,60.758C570.23,59.046 572.315,57.899 575.087,57.899C578.151,57.899 586.618,60.744 591.854,64.117C597.637,67.843 600.353,70.374 600.353,76.865C600.353,83.357 599.946,87.364 599.946,87.364L599.827,87.422C598.109,87.123 596.533,86.635 596.627,85.942C596.831,84.452 596.763,70.227 595.95,69.821C595.137,69.414 591.547,72.462 591.547,72.462C590.962,70.141 590.606,67.857 590.531,65.621C590.531,65.621 585.789,69.143 584.841,68.94C583.893,68.737 583.554,61.895 583.554,61.895C581.069,63.215 578.722,64.605 576.577,66.095C575.949,64.551 575.51,62.63 575.223,60.405C573.672,61.878 571.865,63.436 569.804,65.079C569.204,63.984 568.806,62.552 568.628,60.758Z" style="fill:#433e2b;"/><path d="M568.628,60.758C568.806,62.552 569.204,63.984 569.804,65.079C571.865,63.436 573.672,61.878 575.223,60.405C575.51,62.63 575.949,64.551 576.577,66.095C578.722,64.605 581.069,63.215 583.554,61.895C583.554,61.895 583.893,68.737 584.841,68.94C585.789,69.143 590.531,65.621 590.531,65.621C590.606,67.857 590.962,70.141 591.547,72.462C591.547,72.462 595.137,69.414 595.95,69.821C596.763,70.227 596.831,84.452 596.627,85.942C596.533,86.635 598.109,87.123 599.827,87.422C599.015,87.747 594.503,89.894 594.257,96.306C593.986,103.35 589.989,114.933 578.677,114.933C573.054,114.933 566.988,112.353 563.201,109.497C555.994,104.063 553.75,99.962 553.75,91.97C553.75,77.475 560.321,77.881 562.285,74.224C563.658,71.666 564.866,64.706 568.628,60.758Z" style="fill:none;stroke:#000;stroke-width:1.2px;"/><path d="M568.628,60.758C570.23,59.046 572.315,57.899 575.087,57.899C578.151,57.899 586.618,60.744 591.854,64.117C597.637,67.843 600.353,70.374 600.353,76.865C600.353,83.357 599.946,87.364 599.946,87.364" style="fill:none;stroke:#000;stroke-width:1.2px;"/><path d="M594.914,87.808C595.47,85.719 596.931,83.629 599.093,83.629C600.508,83.629 602.008,85.278 602.008,88.988C602.008,95.809 596.201,100.075 594.779,100.075C593.498,100.075 592.993,99.451 592.841,98.407" style="fill:#fbbc7d;stroke:#000;stroke-width:1.2px;"/><path d="M599.521,87.315C597.507,88.222 595.679,90.941 595.679,92.886C595.679,93.761 595.806,94.655 596.406,94.655C597.417,94.655 598.343,92.585 598.343,91.574C598.343,90.564 597.116,89.338 597.116,89.338" style="fill:none;stroke:#000;stroke-width:1.2px;"/><path d="M573.157,70.287C574.263,70.452 574.886,72.426 574.548,74.691C574.209,76.957 573.037,78.663 571.932,78.498C570.827,78.333 570.204,76.359 570.542,74.094C570.88,71.828 572.052,70.122 573.157,70.287Z"/><path d="M572.735,73.004C573.304,73.063 573.687,73.873 573.59,74.812C573.493,75.751 572.952,76.465 572.383,76.407C571.814,76.348 571.431,75.538 571.528,74.599C571.625,73.66 572.166,72.945 572.735,73.004Z" style="fill:#fff;"/><path d="M583.598,74.192C584.76,74.39 585.396,76.35 585.018,78.566C584.639,80.781 583.39,82.42 582.229,82.221C581.067,82.023 580.432,80.064 580.81,77.848C581.188,75.632 582.437,73.994 583.598,74.192Z"/><path d="M582.994,76.87C583.543,77 583.823,77.804 583.62,78.664C583.416,79.524 582.805,80.116 582.256,79.986C581.706,79.856 581.426,79.052 581.629,78.192C581.833,77.332 582.444,76.74 582.994,76.87Z" style="fill:#fff;"/><path d="M574.909,79.993C577.963,81.672 579.579,84.603 578.517,86.534C577.455,88.465 574.114,88.669 571.061,86.99C568.007,85.31 566.391,82.379 567.453,80.448C568.515,78.517 571.856,78.313 574.909,79.993Z" style="fill:none;stroke:#000;stroke-width:1.2px;"/><path d="M580.987,82.965C578.997,80.849 575.269,78.985 571.983,78.732" style="fill:none;stroke:#000;stroke-width:1.2px;"/><path d="M571.414,89.79L571.983,87.452" style="fill:none;stroke:#000;stroke-width:1.2px;"/><g><path d="M559.25,87.578C559.25,86.472 558.492,85.864 557.671,85.841C556.533,85.841 555.712,86.883 555.712,89C555.712,90.996 556.8,92.227 559.806,93.018" style="fill:none;stroke:#000;stroke-width:1.2px;"/><path d="M562.585,101.85C560.937,99.027 559.875,95.895 559.806,93.018C562.366,93.691 566.317,94.044 572.172,94.276C584.905,94.782 587.009,95.352 587.085,97.341C587.085,98.887 585.74,101.785 583.681,104.504C580.947,101.326 577.804,99.331 571.983,99.331C567.94,99.331 565.193,99.821 562.585,101.85Z" style="fill:#e76c68;"/><path d="M562.585,101.85C565.193,99.821 567.94,99.331 571.983,99.331C577.804,99.331 580.947,101.326 583.681,104.504C581.183,107.943 577.593,111.116 574.226,111.116C570.206,111.116 565.478,106.967 562.585,101.85Z" style="fill:#e27180;"/><path d="M562.585,101.85C560.937,99.027 559.875,95.895 559.806,93.018C562.366,93.691 566.317,94.044 572.172,94.276C584.905,94.782 587.009,95.352 587.085,97.341C587.085,98.887 585.74,101.785 583.681,104.504" style="fill:none;stroke:#000;stroke-width:1.2px;"/><path d="M562.585,101.85C565.193,99.821 567.94,99.331 571.983,99.331C577.804,99.331 580.947,101.326 583.681,104.504C581.183,107.943 577.593,111.116 574.226,111.116C570.206,111.116 565.478,106.967 562.585,101.85Z" style="fill:none;stroke:#000;stroke-width:1.2px;"/></g><path d="M567.24,67.992C570.216,63.89 573.393,61.357 575.645,65.137" style="fill:none;stroke:#000;stroke-width:1.2px;"/><path d="M585.939,68.837C589.196,68.032 592.856,69.113 592.172,80.297" style="fill:none;stroke:#000;stroke-width:1.2px;"/></g><g><path d="M544.466,36.948C544.998,35.975 546.318,34.888 547.888,34.888C550.508,34.888 553.322,40.035 553.053,42.33C553.104,42.326 553.156,42.325 553.208,42.325C555.593,42.325 556.667,45.128 556.667,47.752C556.667,51.93 551.895,55.824 550.779,57.749C548.429,61.801 543.52,64.981 538.841,64.981C532.365,64.981 527.982,60.935 527.982,52.224C527.982,43.397 531.767,40.576 534.882,40.369C535.033,39.036 536.481,37.819 538.705,37.819C538.983,37.819 539.274,37.896 539.572,38.038L539.572,38.038C540.128,36.758 540.966,36.256 542.808,36.311C543.291,36.326 543.871,36.55 544.466,36.948Z" style="fill:#fbbc7d;"/><path d="M552.373,48.885C551.598,49.719 549.838,49.898 547.423,49.898C545.455,49.898 542.541,48.471 542.541,46.622C542.541,45.164 543.091,43.962 544.442,43.875C545.644,43.798 547.802,43.934 548.87,43.934C550.978,43.934 551.633,42.325 553.208,42.325C555.593,42.325 556.667,45.128 556.667,47.752C556.667,51.93 551.895,55.824 550.779,57.749C548.429,61.801 543.52,64.981 538.841,64.981C532.365,64.981 527.982,60.935 527.982,52.224C527.982,43.039 532.08,40.357 535.258,40.357C538.239,40.357 539.194,43.219 539.194,46.32C539.194,49.421 537.226,51.628 535.317,51.628C533.409,51.628 531.799,50.137 531.799,48.169C531.799,46.201 532.991,45.187 533.826,45.187" style="fill:none;stroke:#000;stroke-width:1.2px;"/><path d="M534.88,40.387C535.02,39.047 536.472,37.819 538.705,37.819C540.472,37.819 542.77,40.87 543.451,44.255" style="fill:none;stroke:#000;stroke-width:1.2px;"/><path d="M543.386,48.448C542.765,50.515 541.254,50.966 540.044,50.966C538.76,50.966 538.146,50.771 537.783,50.408" style="fill:none;stroke:#000;stroke-width:1.2px;"/><path d="M539.572,38.038C540.128,36.758 540.966,36.256 542.808,36.311C544.65,36.367 547.995,39.677 547.995,43.892" style="fill:none;stroke:#000;stroke-width:1.2px;"/><path d="M544.809,49.246C544.194,49.378 543.701,49.263 543.227,48.873" style="fill:none;stroke:#000;stroke-width:1.2px;"/><path d="M544.445,36.987C544.962,36.004 546.297,34.888 547.888,34.888C550.512,34.888 553.331,40.052 553.052,42.341" style="fill:none;stroke:#000;stroke-width:1.2px;"/></g></g><g id="_-小夫" serif:id=" 小夫"><path d="M477.409,210.803C476.342,213.599 473.411,218.483 473.387,219.74C473.365,220.82 476.117,224.833 476.356,227.11C476.543,228.89 475.789,231.889 475.789,231.889L468.689,236.344C468.689,236.344 460.753,227.222 460.697,220.469C460.652,215.099 464.315,207.563 465.341,206.051C466.367,204.539 477.409,210.803 477.409,210.803" style="fill:#f9d29e;stroke:#000;stroke-width:1.2px;"/><path d="M476.38,227.437C477.223,227.357 480.865,234.562 481.189,236.83C481.513,239.098 480.028,248.385 480.028,248.385L472.847,247.44L465.233,234.238C467.446,234.169 470.458,233.926 472.658,232.321C475.637,230.147 475.833,227.489 476.38,227.437Z" style="fill:#fff;stroke:#000;stroke-width:1.2px;"/><path d="M480.639,234.78C481.768,234.079 484.823,235.557 485.212,237.478C485.674,239.756 485.725,248.439 484.456,250.923C482.084,255.566 478.705,245.55 478.705,245.55C480.033,243.447 481.183,239.673 480.639,234.78Z" style="fill:#f9d24c;stroke:#000;stroke-width:1.2px;"/><path d="M467.054,188.132C465.194,188.943 464.86,190.898 464.86,192.759C464.86,194.619 465.571,196.05 465.524,197.052C465.476,198.053 463.095,201.202 463.095,204.445C463.095,208.202 468.008,211.934 473.828,211.934C475.237,211.934 477.548,211.886 477.548,211.886C480.743,207.153 485.387,205.408 490.618,204.874L493.957,190.898C493.957,190.898 468.915,187.321 467.054,188.132Z" style="fill:#048779;stroke:#000;stroke-width:1.2px;"/><g><path d="M507.923,162.416L516.259,151.286C516.259,151.286 524.271,152.83 524.234,155.835C524.181,160.225 517.169,171.519 511.549,175.051C510.805,175.519 497.578,175.051 495.491,174.356L495.384,167.718C495.694,181.991 494.581,183.187 494.581,185.007C494.581,187.363 495.705,188.754 495.705,189.985C495.705,191.216 492.065,191.698 485.267,191.698C478.469,191.698 465.462,191.645 465.462,186.453C465.462,184.419 466.372,185.757 466.372,182.759C466.372,179.851 467.924,171.251 467.924,171.251L460.217,171.197L460.163,157.762C460.163,157.762 467.924,158.405 468.834,158.405C469.37,158.405 469.316,157.655 470.547,157.655C471.778,157.655 472.099,158.512 473.545,158.94C474.99,159.368 486.873,158.619 486.873,158.619L494.902,162.205L507.923,162.416Z" style="fill:#79bde9;"/><path d="M495.384,167.718C495.694,181.991 494.581,183.187 494.581,185.007C494.581,187.363 495.705,188.754 495.705,189.985C495.705,191.216 492.065,191.698 485.267,191.698C478.469,191.698 465.462,191.645 465.462,186.453C465.462,184.419 466.372,185.757 466.372,182.759C466.372,179.851 467.924,171.251 467.924,171.251L460.217,171.197L460.163,157.762C460.163,157.762 467.924,158.405 468.834,158.405C469.37,158.405 469.316,157.655 470.547,157.655C471.778,157.655 472.099,158.512 473.545,158.94C474.99,159.368 486.873,158.619 486.873,158.619L494.902,162.205L507.937,162.398" style="fill:none;stroke:#000;stroke-width:1.2px;"/><path d="M507.159,163.436L516.259,151.286C516.259,151.286 524.271,152.83 524.234,155.835C524.181,160.225 517.169,171.519 511.549,175.051C510.805,175.519 497.578,175.051 495.491,174.356" style="fill:none;stroke:#000;stroke-width:1.2px;"/><path d="M469.53,160.332C470.491,161.963 469.622,166.64 468.727,167.825" style="fill:none;stroke:#000;stroke-width:1.2px;"/><path d="M480.021,167.129L490.031,167.932L493.403,159.689L476.114,156.264L474.883,163.115L480.021,167.129Z" style="fill:#f9d29e;stroke:#000;stroke-width:1.2px;"/><path d="M473.17,158.137C472.587,159.075 472.581,161.563 472.795,166.327C472.892,168.476 472.284,174.949 473.545,175.854C474.242,176.355 479.036,169.377 483.822,167.504C478.328,165.809 473.661,157.347 473.17,158.137Z" style="fill:#fff;stroke:#000;stroke-width:1.2px;"/><path d="M486.391,167.558C490.597,170.796 491.855,176.113 492.761,176.283C493.609,176.441 494.795,171.465 494.795,169.11C494.795,167.652 494.713,164.376 494.023,162.99C493.295,161.526 491.958,161.991 491.958,161.991C490.537,164.221 488.525,166.469 486.391,167.558Z" style="fill:#fff;stroke:#000;stroke-width:1.2px;"/></g><g><path d="M453.322,137.688C453.046,137.005 452.842,136.014 452.842,134.43C452.842,133.006 453.033,130.816 454.415,130.816C455.329,130.816 456.332,132.144 456.456,133.431C456.796,136.961 460.942,137.492 460.942,144.976C460.942,149.568 458.561,151.673 457.413,152.354L438.767,144.934C438.767,144.934 438.738,142.921 438.426,142.829C437.969,142.121 437.761,140.603 438.663,140.455L438.618,140.447C437.688,138.237 438.683,136.867 440.087,136.932L439.936,136.897C439.313,134.834 440.756,133.252 442.766,133.993L442.785,133.878C442.296,131.39 445.485,131.752 446.655,132.623C447.701,133.403 451.06,135.986 452.945,137.618L453.322,137.688Z" style="fill:#f9d29e;"/><path d="M454.245,139.108C453.671,138.406 452.842,137.62 452.842,134.43C452.842,133.006 453.033,130.816 454.415,130.816C455.329,130.816 456.332,132.144 456.456,133.431C456.796,136.961 460.942,137.492 460.942,144.976C460.942,149.568 458.561,151.673 457.413,152.354" style="fill:none;stroke:#000;stroke-width:1.2px;"/><path d="M453.543,138.151C451.885,136.62 447.824,133.495 446.655,132.623C445.485,131.752 442.296,131.39 442.785,133.878" style="fill:none;stroke:#000;stroke-width:1.2px;"/><path d="M449.759,139.193C448.079,137.79 445.095,135.253 443.338,134.26C441.042,132.963 439.256,134.643 439.936,136.897" style="fill:none;stroke:#000;stroke-width:1.2px;"/><path d="M446.931,141.893C445.06,140.022 442.224,137.733 441.02,137.173C439.192,136.323 437.491,137.768 438.618,140.447" style="fill:none;stroke:#000;stroke-width:1.2px;"/><path d="M442.891,142.063C441.275,140.915 440.249,140.309 438.724,140.447C437.752,140.536 437.959,142.106 438.426,142.829" style="fill:none;stroke:#000;stroke-width:1.2px;"/><path d="M454.372,139.321C452.99,140.511 453.097,143.658 453.458,145.55" style="fill:none;stroke:#000;stroke-width:1.2px;"/><path d="M450.099,139.491C448.908,140.277 447.59,141.553 446.718,142.977" style="fill:none;stroke:#000;stroke-width:1.2px;"/></g><g><path d="M536.64,143.466C537.163,144.036 537.261,144.977 536.492,145.772C535.361,146.943 527.203,154.635 525.198,156.21C524.449,156.799 519.952,156.638 517.704,155.139C515.456,153.641 514.921,151.5 514.921,148.288C514.921,140.296 519.524,138.367 519.524,136.084C519.524,134.523 520.166,134.05 520.969,134.05C522.522,134.05 522.843,135.602 522.843,137.154C522.843,139.67 522.522,141.276 522.522,141.276C522.522,141.276 525.979,137.103 528.57,135.335C531.114,133.598 533.441,134.942 533.187,136.912C534.98,136.365 537.301,137.346 536.043,139.714C537.44,139.411 538.501,140.508 537.563,142.24C537.327,142.675 536.987,143.097 536.64,143.466Z" style="fill:#f9d29e;"/><path d="M530.711,146.361C530.711,146.361 532.317,144.862 534.19,143.417C536.064,141.972 538.044,144.166 536.492,145.772C535.361,146.943 527.203,154.635 525.198,156.21C524.449,156.799 519.952,156.638 517.704,155.139C515.456,153.641 514.921,151.5 514.921,148.288C514.921,140.296 519.524,138.367 519.524,136.084C519.524,134.523 520.166,134.05 520.969,134.05C522.522,134.05 522.843,135.602 522.843,137.154C522.843,139.67 522.522,141.276 522.522,141.276C522.522,141.276 525.979,137.103 528.57,135.335C531.439,133.377 533.709,135.067 533.173,136.887" style="fill:none;stroke:#000;stroke-width:1.2px;"/><path d="M528.838,145.184C530.658,143.203 533.548,140.955 535.314,139.991C537.025,139.058 538.485,140.13 537.563,142.24C537.332,142.766 536.653,143.417 536.653,143.417" style="fill:none;stroke:#000;stroke-width:1.2px;"/><path d="M525.626,142.721C527.5,141.008 530.444,138.867 532.21,137.422C533.976,135.977 537.189,137.143 536.224,139.617" style="fill:none;stroke:#000;stroke-width:1.2px;"/><path d="M521.665,142.186C522.682,143.792 522.843,145.344 521.451,147.913" style="fill:none;stroke:#000;stroke-width:1.2px;"/><path d="M523.806,148.93C523.913,147.11 527.018,145.879 529.855,145.933" style="fill:none;stroke:#000;stroke-width:1.2px;"/><path d="M524.823,142.4C526.376,143.203 527.446,143.792 528.677,145.451" style="fill:none;stroke:#000;stroke-width:1.2px;"/></g><path d="M491.79,194.242C491.153,195.252 490.146,200.881 489.995,203.177C489.9,204.611 493.865,206.72 493.865,206.72C493.865,206.72 500.729,206.354 501.767,205.103C502.804,203.852 504.421,197.628 504.421,193.967C504.421,190.306 502.56,187.102 498.014,187.102C493.468,187.102 488.586,193.479 488.586,198.879C488.586,201.381 490.103,202.056 490.103,202.056" style="fill:#f9d29e;stroke:#000;stroke-width:1.2px;"/><path d="M495.146,202.144C497.678,202.144 501.622,203.752 502.115,204.544C502.957,205.896 500.79,211.835 500.516,215.11C500.344,217.158 495.695,217.643 495.695,217.643C495.695,217.643 488.883,217.517 488.739,214.866C488.556,211.51 489.438,204.546 489.563,203.547C489.624,203.059 492.614,202.144 495.146,202.144Z" style="fill:#fff;stroke:#000;stroke-width:1.2px;"/><g><path d="M482.591,225.522C482.118,224.829 481.887,224.163 481.874,223.623C481.752,218.436 486.634,214.653 495.421,214.653C504.207,214.653 505.153,224.355 505.153,225.484C505.153,226.31 504.517,228.833 500.715,230.106L502.987,228.321C502.987,228.321 498.319,226.613 494.414,226.033C491.209,225.557 484.899,225.215 482.591,225.522Z" style="fill:#f9d24c;"/><path d="M482.591,225.522C484.899,225.215 491.209,225.557 494.414,226.033C498.319,226.613 502.987,228.321 502.987,228.321L500.715,230.106C499.331,230.604 497.513,230.915 495.146,230.915C488.307,230.915 484.127,227.978 482.591,225.522Z" style="fill:#808080;"/><path d="M482.591,225.522C482.118,224.829 481.887,224.163 481.874,223.623C481.752,218.436 486.634,214.653 495.421,214.653C504.207,214.653 505.153,224.355 505.153,225.484C505.153,226.31 504.517,228.833 500.715,230.106" style="fill:none;stroke:#000;stroke-width:1.2px;"/><path d="M482.591,225.522C484.899,225.215 491.209,225.557 494.414,226.033C498.319,226.613 502.987,228.321 502.987,228.321L500.715,230.106C499.331,230.604 497.513,230.915 495.146,230.915C488.307,230.915 484.127,227.978 482.591,225.522Z" style="fill:none;stroke:#000;stroke-width:1.2px;"/><path d="M494.841,213.341C498.227,213.341 502.194,215.721 502.194,216.971C502.194,218.222 501.462,218.772 497.587,218.772C493.712,218.772 488.403,217.094 488.403,215.812C488.403,214.531 492.187,213.341 494.841,213.341Z" style="fill:#f3f6dc;stroke:#000;stroke-width:1.2px;"/></g><g><path d="M507.427,136.726C508.765,135.87 510.532,136.459 510.532,139.189C510.532,141.918 508.712,146.201 506.196,144.916C503.68,143.631 506.089,137.583 507.427,136.726Z" style="fill:#f9d29e;stroke:#000;stroke-width:1.2px;"/><path d="M476.89,155.562L472.742,149.84L478.255,141.597L501.967,152.838C499.333,156.225 497.361,159.793 496.171,163.576C496.415,160.661 493.412,156.069 489.763,154.818C485.47,153.347 479.432,153.351 476.89,155.562Z" style="fill:#d5706c;"/><path d="M476.89,155.562C479.432,153.351 485.47,153.347 489.763,154.818C493.412,156.069 496.415,160.661 496.171,163.576L495.972,164.132L484.695,162.961L477.865,156.907L476.89,155.562Z" style="fill:#de707d;"/><path d="M476.89,155.562L472.742,149.84L478.255,141.597L501.967,152.838C499.333,156.225 497.361,159.793 496.171,163.576C496.415,160.661 493.412,156.069 489.763,154.818C485.47,153.347 479.432,153.351 476.89,155.562Z" style="fill:none;stroke:#000;stroke-width:1.2px;"/><path d="M470.262,144.798C470.262,152.42 473.967,165.387 491.275,165.387C496.991,165.387 498.314,164.646 498.314,163.852C498.314,163.058 476.561,164.699 476.561,148.821C476.561,146.651 476.561,145.38 477.513,145.38C478.466,145.38 486.564,154.113 499.849,154.113C510.964,154.113 513.663,147.55 513.663,146.492C513.663,144.11 506.518,145.857 506.518,143.951C506.518,142.258 510.594,138.251 510.594,120.528C510.594,117.995 485.241,116.46 485.241,116.46L468.41,122.335C468.41,122.335 470.262,137.176 470.262,144.798Z" style="fill:#f9d29e;stroke:#000;stroke-width:1.2px;"/><path d="M471.511,140.098L471.511,125.753C471.511,124.95 483.21,123.398 491.037,123.398C498.863,123.398 521.558,125.646 521.558,125.646L515.028,119.384L523.539,114.459L512.833,113.335L519.845,105.306L465.302,116.46C463.582,122.977 463.738,132.672 465.302,144.755L471.511,140.098Z" style="fill:#413f28;stroke:#000;stroke-width:1.2px;"/><path d="M471.338,140.547C470.592,138.576 469.019,135.335 466.747,135.335C463.482,135.335 462.465,138.172 462.465,142.507C462.465,146.843 463.864,151.928 468.41,151.928C469.702,151.928 471.048,151.144 471.613,150.68" style="fill:#f9d29e;stroke:#000;stroke-width:1.2px;"/><path d="M466.158,139.67C468.138,140.741 468.781,144.274 468.781,145.772C468.781,147.271 468.406,148.02 467.443,148.02C466.479,148.02 465.633,147.11 465.676,145.237C465.73,142.935 468.124,142.478 468.124,142.478" style="fill:none;stroke:#000;stroke-width:1.2px;"/><g><path d="M482.323,124.201C487.622,124.201 492.6,130.892 492.6,137.047C492.6,143.203 488.8,144.809 485.213,144.809C481.627,144.809 475.953,140.741 475.953,133.194C475.953,129.393 478.523,124.201 482.323,124.201Z" style="fill:#fff;stroke:#000;stroke-width:1.2px;"/><path d="M502.181,124.469C504.751,124.469 507.159,128.055 507.159,132.658C507.159,137.262 503.573,144.755 498.435,144.755C493.296,144.755 493.028,139.884 493.028,137.422C493.028,134.96 496.294,124.469 502.181,124.469Z" style="fill:#fff;stroke:#000;stroke-width:1.2px;"/><path d="M484.786,132.608C486.13,132.582 487.257,134.419 487.3,136.706C487.344,138.994 486.288,140.872 484.944,140.898C483.6,140.923 482.474,139.087 482.43,136.799C482.386,134.511 483.442,132.633 484.786,132.608Z"/><ellipse cx="484.598" cy="136.592" rx="1.204" ry="1.847" style="fill:#fff;"/><path d="M496.919,133.778C498.099,133.975 498.789,135.744 498.459,137.725C498.128,139.707 496.902,141.156 495.721,140.959C494.541,140.762 493.851,138.993 494.182,137.012C494.513,135.03 495.739,133.582 496.919,133.778Z"/><path d="M496.204,135.818C496.824,135.847 497.295,136.553 497.256,137.394C497.217,138.235 496.682,138.895 496.062,138.866C495.442,138.837 494.971,138.131 495.01,137.29C495.049,136.449 495.584,135.789 496.204,135.818Z" style="fill:#fff;"/></g><path d="M485.856,119.865C485.588,119.33 484.839,119.17 483.822,119.17C480.343,119.17 473.598,123.719 473.598,130.035" style="fill:none;stroke:#000;stroke-width:1.2px;"/><path d="M502.449,120.401C505.34,120.401 508.23,122.809 508.23,128.858" style="fill:none;stroke:#000;stroke-width:1.2px;"/><path d="M491.851,143.203C492.761,142.293 494.741,141.169 495.865,142.828C496.989,144.488 493.457,149.626 491.637,146.201" style="fill:#f9d29e;stroke:#000;stroke-width:1.2px;"/></g></g><g id="静香"><path d="M657.83,174.114C667.888,182.827 675.082,192.743 678.887,204.082C674.122,209.561 668.317,213.689 662.051,216.416L610.697,191.419C613.504,183.944 617.472,177.274 621.905,170.925" style="fill:#106cb9;stroke:#000;stroke-width:1.2px;"/><path d="M681.188,237.391C685.075,237.014 690.37,240.461 691.528,244.661C692.468,248.073 691.528,253.6 691.528,253.6C691.528,253.6 685.21,248.824 685.443,244.93C685.711,240.44 683.38,238.812 681.188,237.391Z" style="fill:#fba8c2;stroke:#000;stroke-width:1.2px;"/><path d="M591.749,310.122C591.749,313.399 595.991,318.058 603.188,318.058C609.235,318.058 618.573,313.218 623.688,308.997C624.18,308.591 617.776,291.518 617.776,291.518C617.776,291.518 600.296,300.033 597.372,302.153C594.448,304.274 591.749,306.33 591.749,310.122Z" style="fill:#fba8c2;stroke:#000;stroke-width:1.2px;"/><path d="M599.461,302.7C602.224,305.527 608.618,305.977 613.47,302.153C619.066,297.743 615.334,293.735 615.334,293.735L601.678,293.767C601.678,293.767 597.61,300.806 599.461,302.7Z" style="fill:#fff;stroke:#000;stroke-width:1.2px;"/><g><path d="M572.551,131.149L572.554,131.16C569.844,131.128 567.827,132.95 569.166,134.861C567.167,135.296 566.438,137.403 569.792,139.343C569.102,140.042 569.019,141.11 569.806,141.761C571.681,143.313 575.559,145.22 578.986,145.22C581.28,145.22 582.778,145.377 584.254,146.512C585.935,147.805 590.04,147.547 591.656,146.965C593.513,146.296 597.668,139.014 598.379,137.689C599.09,136.363 598.993,131.838 598.573,130.222C598.152,128.606 594.144,126.36 591.591,121.14C590.702,119.321 588.179,120.358 587.713,121.948C586.897,124.728 589.508,127.258 589.869,130.106L588.958,130.161C586.095,129.965 581.431,128.541 578.081,128.541C574.887,128.541 572.144,129.314 572.551,131.149Z" style="fill:#fcd4a0;"/><g><path d="M579.341,139.919C579.273,139.805 575.509,140.038 573.168,139.014C570.041,137.646 568.273,140.492 569.806,141.761C571.681,143.313 575.559,145.22 578.986,145.22C581.28,145.22 582.778,145.377 584.254,146.512C585.935,147.805 590.04,147.547 591.656,146.965C593.513,146.296 597.668,139.014 598.379,137.689C599.09,136.363 598.993,131.838 598.573,130.222C598.152,128.606 594.144,126.36 591.591,121.14C590.702,119.321 588.179,120.358 587.713,121.948C586.837,124.932 589.91,127.629 589.91,130.739C589.91,132.46 590.072,133.842 590.783,134.941" style="fill:none;stroke:#000;stroke-width:1.2px;"/><path d="M589.869,130.106C587.195,130.255 581.83,128.541 578.081,128.541C574.881,128.541 572.133,129.317 572.554,131.16" style="fill:none;stroke:#000;stroke-width:1.2px;"/><path d="M583.705,133.81C580.505,132.355 575.109,131.19 572.554,131.16C569.806,131.127 567.77,133.002 569.224,134.941" style="fill:none;stroke:#000;stroke-width:1.2px;"/><path d="M581.054,137.074C577.046,136.266 572.586,134.812 570,134.78C567.414,134.747 565.992,137.171 569.838,139.369" style="fill:none;stroke:#000;stroke-width:1.2px;"/></g><path d="M587.454,131.515C583.742,133.796 581.081,136.603 579.438,139.919" style="fill:none;stroke:#000;stroke-width:1.2px;"/><path d="M587.26,139.143C584.682,138.806 582.184,138.828 579.778,139.267" style="fill:none;stroke:#000;stroke-width:1.2px;"/></g><path d="M679.877,119.99C682.608,119.498 687.252,119.006 690.64,120.809C694.027,122.612 697.305,128.841 697.141,132.665C696.955,137.015 697.017,140.5 697.305,142.718C695.494,141.191 693.506,139.309 691.404,137.2C692.214,139.799 693.308,142.341 694.846,144.794C689.566,143.29 683.091,140.626 679.822,137.148C676.553,133.669 674.31,128.702 675.233,123.923" style="fill:#433e2b;stroke:#000;stroke-width:1.2px;"/><path d="M626.881,111.685C621.963,110.92 616.007,110.03 611.419,121.629C610.093,124.981 607.646,129.203 606.229,130.971C609.658,129.269 613.417,127.32 617.429,125.18C615.643,127.164 613.769,129.06 611.692,130.753C613.323,131.619 615.844,132.228 619.45,132.228C624.531,132.228 630.596,128.677 633.164,123.049" style="fill:#433e2b;stroke:#000;stroke-width:1.2px;"/><g><rect x="637.336" y="133.802" width="35.009" height="11.83" style="fill:#fba8c2;"/><path d="M635.338,134.837L657.687,140.033L665.659,126.775L639.772,125.656L635.338,134.837Z" style="fill:#fcd4a0;stroke:#000;stroke-width:1.2px;"/><path d="M620.866,157.895C619.343,159.668 614.522,163.277 611.242,163.277C606.775,163.277 589.81,149.171 589.744,148.094C589.565,145.186 596.139,136.881 598.657,136.942C599.855,136.972 611.488,143.279 613.302,143.974C617.733,140.994 623.502,135.653 628.261,130.896L636.323,130.806" style="fill:#fba8c2;stroke:#000;stroke-width:1.2px;"/><path d="M629.311,134.787C622.921,144.366 618.936,159.964 620.562,172.068C630.024,177.332 649.541,177.572 660.606,176.013C661.65,174.709 662.741,173.006 662.741,171.792C662.741,170.943 661.694,170.503 661.694,168.938C661.694,165.537 668.633,151.794 668.633,151.794C680.719,144.793 714.531,123.48 715.302,121.861C716.263,119.846 716.119,114.377 714.622,112.336C713.125,110.296 710.604,107.772 707.003,107.438C704.107,107.17 683.889,121.515 675.753,128.621L670.996,128.664C668.489,131.359 664.626,138.053 664.415,143.631" style="fill:#fba8c2;"/><path d="M637.443,127.178C632.859,131.179 626.996,144.29 628.351,144.825C629.6,145.318 636.794,137.49 642.369,136.226C639.329,133.962 637.781,130.248 637.443,127.178Z" style="fill:#fff;stroke:#000;stroke-width:1.2px;"/><path d="M667.957,132.938L663.778,129.776C658.765,134.917 652.291,136.801 645.415,136.987C650.074,140.077 655.133,151.409 656.254,151.409C657.374,151.409 661.492,141.765 666.105,136.749" style="fill:#fff;stroke:#000;stroke-width:1.2px;"/><path d="M629.311,134.787C622.921,144.366 618.936,159.964 620.562,172.068C630.024,177.332 649.541,177.572 660.606,176.013C661.65,174.709 662.741,173.006 662.741,171.792C662.741,170.943 661.694,170.503 661.694,168.938C661.694,165.537 668.633,151.794 668.633,151.794C680.719,144.793 714.531,123.48 715.302,121.861C716.263,119.846 716.119,114.377 714.622,112.336C713.125,110.296 710.604,107.772 707.003,107.438C704.107,107.17 683.889,121.515 675.753,128.621L670.996,128.664C668.489,131.359 664.626,138.053 664.415,143.631" style="fill:none;stroke:#000;stroke-width:1.2px;"/></g><g><rect x="625.902" y="78.9" width="6.777" height="12.384" style="fill:#433e2b;stroke:#000;stroke-width:1.2px;"/><g><rect x="623.992" y="91.407" width="5.36" height="8.626" style="fill:#fcd4a0;"/><path d="M629.295,93.595C629.157,91.662 626.931,88.021 625.171,88.021C623.411,88.021 621.167,91.024 621.167,96.563C621.167,102.102 622.479,105.415 624.205,105.415C626.258,105.415 626.948,97.02 625.016,92.836" style="fill:#fcd4a0;stroke:#000;stroke-width:1.2px;"/></g><path d="M628.202,80.379C628.202,85.637 628.372,88.436 628.372,91.744C628.372,95.052 624.47,101.498 624.47,108.962C624.47,118.204 628.453,121.834 634.148,127.442C637.961,131.197 642.02,135.171 647.371,135.171C659.67,135.171 673.665,127.028 678.838,116.341C683.436,106.845 683.843,86.994 683.843,86.994L666.37,67.741L631.256,67.91C631.256,67.91 628.202,75.12 628.202,80.379Z" style="fill:#fcd4a0;stroke:#000;stroke-width:1.2px;"/><path d="M624.301,72.491C624.159,79.446 627.467,83.941 630.238,85.977C630.731,79.148 634.494,74.258 641.095,71.049C641.755,78.886 644.732,84.133 649.237,87.673C650.813,82.66 653.966,78.041 659.161,73.933C659.553,79.978 661.454,85.699 665.013,91.066C667.304,87.159 670.554,84.116 675.106,82.245C675.106,82.245 677.99,88.945 677.99,94.458C677.99,99.972 675.531,109.047 674.513,110.913C673.495,112.779 679.771,114.306 683.249,109.641C686.726,104.976 689.101,100.565 689.101,91.659C689.101,82.754 684.436,59.598 654.835,59.598C640.416,59.598 640.416,62.652 634.139,62.652C627.863,62.652 624.444,65.452 624.301,72.491Z" style="fill:#433e2b;stroke:#000;stroke-width:1.2px;"/><g><path d="M638.72,84.28C641.179,84.28 643.045,88.352 643.045,91.32C643.045,95.9 641.179,104.806 636.684,104.806C632.273,104.806 631.086,100.82 631.086,98.19C631.086,95.561 633.206,84.28 638.72,84.28Z" style="fill:#fff;stroke:#000;stroke-width:1.2px;"/><path d="M638.679,87.028C640.864,87.385 642.057,91.237 641.341,95.624C640.625,100.012 638.27,103.285 636.084,102.928C633.899,102.572 632.706,98.72 633.422,94.332C634.138,89.944 636.493,86.672 638.679,87.028Z"/><path d="M639.173,91.546C640.186,91.731 640.73,93.413 640.386,95.302C640.042,97.19 638.94,98.573 637.927,98.389C636.914,98.204 636.37,96.521 636.714,94.633C637.058,92.745 638.16,91.362 639.173,91.546Z" style="fill:#fff;"/><path d="M635.899,85.461C634.77,84.743 634.565,82.229 634.668,80.587" style="fill:none;stroke:#000;stroke-width:1.2px;"/></g><g><path d="M663.317,90.048C666.54,90.048 669,93.78 669,97.682C669,103.364 666.964,110.065 662.129,110.065C657.295,110.065 655.768,105.909 655.768,102.516C655.768,96.664 659.076,90.048 663.317,90.048Z" style="fill:#fff;stroke:#000;stroke-width:1.2px;"/><path d="M663.803,92.082C666.369,92.481 667.881,96.475 667.179,100.997C666.476,105.518 663.823,108.865 661.257,108.467C658.691,108.068 657.178,104.073 657.881,99.552C658.583,95.03 661.237,91.683 663.803,92.082Z"/><path d="M663.936,95.957C664.995,96.154 665.577,97.808 665.235,99.649C664.893,101.49 663.756,102.825 662.697,102.629C661.639,102.432 661.057,100.778 661.399,98.937C661.741,97.096 662.878,95.761 663.936,95.957Z" style="fill:#fff;"/><path d="M661.038,90.643C660.064,89.976 659.243,87.821 659.345,85.718" style="fill:none;stroke:#000;stroke-width:1.2px;"/></g><g><rect x="672.913" y="107.427" width="3.45" height="5.052" style="fill:#fcd4a0;"/><path d="M675.369,107.775C676.98,104.467 679.347,103.025 681.468,103.025C683.588,103.025 685.539,104.637 685.539,108.369C685.539,115.833 678.245,126.52 673.495,126.52C671.375,126.461 670.611,124.823 670.187,122.448" style="fill:#fcd4a0;stroke:#000;stroke-width:1.2px;"/><path d="M680.959,108.369C678.048,111.125 675.022,114.605 675.022,116.935C675.022,117.862 675.361,118.526 676.288,118.526C677.215,118.526 680.026,115.5 680.026,114.391C680.026,112.946 678.726,112.063 677.3,112.289" style="fill:none;stroke:#000;stroke-width:1.2px;"/></g><path d="M644.678,106.205C643.721,105.235 641.583,104.896 640.977,105.414C640.231,106.051 640.439,108.706 641.023,109.784" style="fill:none;stroke:#000;stroke-width:1.2px;"/><g><path d="M641.998,121.569C643.55,120.519 645.626,119.376 647.865,119.376C649.794,119.376 652.233,119.796 654.298,120.947C652.273,123.429 647.87,126.437 646.516,126.41C644.683,126.375 643.112,124.219 641.998,121.569Z" style="fill:#dc6f87;"/><path d="M640.149,114.325C641.467,114.137 644.081,114.054 646.293,114.379C648.675,114.729 655.352,116.536 655.352,118.883C655.352,119.446 654.947,120.173 654.298,120.947C652.233,119.796 649.794,119.376 647.865,119.376C645.626,119.376 643.55,120.519 641.998,121.569C640.951,119.148 640.291,116.311 640.149,114.325Z" style="fill:#dc6e66;"/><path d="M641.998,121.569C640.951,119.148 640.291,116.311 640.149,114.325C641.467,114.137 644.081,114.054 646.293,114.379C648.675,114.729 655.352,116.536 655.352,118.883C655.352,119.446 654.947,120.173 654.298,120.947" style="fill:none;stroke:#000;stroke-width:1.2px;"/><path d="M640.149,114.325L639.623,114.364L640.147,114.307L640.149,114.325Z" style="fill:none;stroke:#000;stroke-width:1.2px;"/><path d="M641.998,121.569C643.55,120.519 645.626,119.376 647.865,119.376C649.794,119.376 652.233,119.796 654.298,120.947C652.273,123.429 647.87,126.437 646.516,126.41C644.683,126.375 643.112,124.219 641.998,121.569Z" style="fill:none;stroke:#000;stroke-width:1.2px;"/></g><path d="M662.68,80.741C665.04,78.484 673.967,83.614 673.967,93.362" style="fill:none;stroke:#000;stroke-width:1.2px;"/><path d="M630.769,82.845C632.215,79.938 635.721,76.844 638.251,76.844C639.594,76.844 640.836,78.021 641.543,79.151" style="fill:none;stroke:#000;stroke-width:1.2px;"/></g><g><path d="M721.916,97.93C721.916,97.93 736.558,96.947 739.245,97.126C741.891,97.302 745.537,100.302 742.311,101.634C742.734,101.654 743.091,101.674 743.365,101.694C746.35,101.914 747.399,105.057 744.66,106.111C747.546,106.657 746.64,110.042 739.648,112.179C739.71,112.177 739.77,112.176 739.827,112.175C741.843,112.13 743.035,115.459 740.589,116.474C739.375,116.978 736.558,117.245 733.423,117.37C726.704,117.639 721.375,120.505 716.941,120.505C711.79,120.505 709.32,118.368 707.625,115.444C706.045,112.719 706.161,108.405 707.132,107.696C708.031,107.04 708.767,107.081 709.193,106.487C710.121,105.19 709.64,100.664 712.417,97.619C713.975,95.91 716.942,94.395 718.195,93.095C719.404,91.841 720.389,87.317 722.226,87.317C723.077,87.317 724.331,89.243 724.331,91.707C724.331,93.766 723.473,96.274 721.916,97.93Z" style="fill:#fcd4a0;"/><path d="M717.254,106.979C719.233,104.862 719.755,102.453 719.762,99.41C722.665,98.317 724.331,94.576 724.331,91.707C724.331,89.243 723.077,87.317 722.226,87.317C720.389,87.317 719.404,91.841 718.195,93.095C716.942,94.395 713.975,95.91 712.417,97.619C709.64,100.664 710.121,105.19 709.193,106.487C708.767,107.081 708.031,107.04 707.132,107.696C706.161,108.405 706.045,112.719 707.625,115.444C709.32,118.368 711.79,120.505 716.941,120.505C721.375,120.505 726.704,117.639 733.423,117.37C736.558,117.245 739.375,116.978 740.589,116.474C743.035,115.459 741.843,112.13 739.827,112.175C737.722,112.221 731.273,112.488 731.273,112.488" style="fill:none;stroke:#000;stroke-width:1.2px;"/><path d="M721.916,97.93C721.916,97.93 736.558,96.947 739.245,97.126C741.932,97.305 745.65,100.395 742.156,101.694" style="fill:none;stroke:#000;stroke-width:1.2px;"/><path d="M727.914,101.694C733.199,101.336 741.084,101.527 743.365,101.694C746.411,101.918 747.441,105.188 744.485,106.173" style="fill:none;stroke:#000;stroke-width:1.2px;"/><path d="M730.825,107.203C735.707,105.86 741.167,105.935 743.993,106.039C747.665,106.173 747.128,109.935 739.514,112.219" style="fill:none;stroke:#000;stroke-width:1.2px;"/><path d="M727.466,101.291C729.171,104.143 730.509,106.934 731.497,109.667" style="fill:none;stroke:#000;stroke-width:1.2px;"/><path d="M718.15,113.563C720.748,110.876 727.914,110.428 729.66,112.13" style="fill:none;stroke:#000;stroke-width:1.2px;"/></g></g><g id="_-机器猫" serif:id=" 机器猫"><g><path d="M341.129,2.993C400.847,2.993 442.3,44.553 442.3,103.615C442.3,160.052 395.805,198.593 367.149,214.562C338.893,230.307 287.098,221.411 275.505,189.036C263.911,156.661 240.773,93.817 253.849,60.194C266.099,28.694 295.411,2.993 341.129,2.993Z" style="fill:#00adf0;stroke:#000;stroke-width:1.2px;"/><path d="M299.786,35.475C350.316,35.475 419.878,54.287 419.878,119.912C419.878,156.443 399.972,177.005 377.222,196.036C354.473,215.067 284.736,205.298 268.067,169.786C252.974,137.63 248.818,118.818 248.818,97.162C248.818,65.225 265.442,35.475 299.786,35.475Z" style="fill:#fff;stroke:#000;stroke-width:1.2px;"/></g><path d="M268.199,173.748C264.299,160.985 247.104,126.95 240.723,125.177C233.806,123.256 220.337,135.991 220.337,135.991C220.337,135.991 230.087,194.311 235.05,199.806C240.014,205.301 251.004,211.151 251.004,211.151C248.525,224.253 246.806,237.165 246.218,249.794L306.843,293.756L387.812,241.618L383.724,197.523L309.856,193.779C309.856,193.779 280.076,182.079 268.199,173.748Z" style="fill:#00adf0;"/><g><path d="M286.989,186.688C265.54,191.474 252.245,218.773 260.222,246.426C269.125,277.289 346.55,259.898 346.55,259.898C346.55,259.898 369.206,219.384 364.808,213.101C361.086,207.783 357.54,203.706 353.286,199.806" style="fill:#fff;stroke:#000;stroke-width:1.2px;"/><path d="M270.858,225.155C278.628,229.32 287.964,232.097 297.625,234.372L271.39,241.108C270.711,236.243 270.65,230.966 270.858,225.155Z" style="fill:none;stroke:#000;stroke-width:1.2px;"/></g><path d="M319.473,190.349C342.833,195.334 371.027,195.043 388.16,191.88C399.551,189.777 403.873,196.474 387.504,199.317C370.707,202.235 339.904,202.997 316.337,199.321C294.395,195.898 276.262,183.742 267.29,172.822C259.621,163.487 255.204,153.341 264.786,163.88C275.579,175.75 292.646,184.623 319.473,190.349Z" style="fill:#d12140;stroke:#000;stroke-width:1.2px;"/><g><path d="M281.82,145.077C290.766,134.2 307.265,129.318 326.692,129.318C346.144,129.318 374.209,143.413 383.283,152.354C371.735,167.497 353.711,181.161 330.848,181.161C309.331,181.161 292.865,164.361 281.82,145.077Z" style="fill:#f57c35;"/><path d="M281.82,145.077C271.993,128.15 266.383,109.29 265.154,98.329C327.904,113.87 393.793,109.786 396.691,114.224C400.24,119.659 395.186,136.789 383.283,152.354C374.209,143.413 346.144,129.318 326.692,129.318C307.265,129.318 290.766,134.2 281.82,145.077Z" style="fill:#e51837;"/><path d="M281.82,145.077C290.766,134.2 307.265,129.318 326.692,129.318C346.144,129.318 374.209,143.413 383.283,152.354C371.735,167.497 353.711,181.161 330.848,181.161C309.331,181.161 292.865,164.361 281.82,145.077Z" style="fill:none;stroke:#000;stroke-width:1.2px;"/><path d="M281.82,145.077C271.993,128.15 266.383,109.29 265.154,98.329C327.904,113.87 393.793,109.786 396.691,114.224C400.24,119.659 395.186,136.789 383.283,152.354" style="fill:none;stroke:#000;stroke-width:1.2px;"/><path d="M270.911,64.131C270.255,59.975 264.349,56.037 257.786,56.037C251.224,56.037 242.911,61.944 242.911,75.068C242.911,88.193 247.613,93.599 257.349,96.287C259.942,97.003 262.545,97.683 265.154,98.329" style="fill:#fff;stroke:#000;stroke-width:1.2px;"/></g><g><path d="M268.199,173.748C264.299,160.985 247.104,126.95 240.723,125.177C233.806,123.256 220.337,135.991 220.337,135.991C220.337,135.991 230.087,194.311 235.05,199.806C240.014,205.301 251.004,211.151 251.004,211.151C248.525,224.253 246.806,237.165 246.218,249.794" style="fill:#00adf0;stroke:#000;stroke-width:1.2px;"/><ellipse cx="222.287" cy="118.087" rx="21.094" ry="22.513" style="fill:#fff;stroke:#000;stroke-width:1.2px;"/></g><g><path d="M373.849,203.706C390.473,184.87 407.883,171.266 423.483,164.176C439.082,157.085 450.604,180.307 445.641,187.397C440.677,194.488 434.119,200.869 428.446,205.656C422.774,210.442 370.658,218.596 370.658,218.596" style="fill:#00adf0;stroke:#000;stroke-width:1.2px;"/><ellipse cx="442.716" cy="166.391" rx="22.779" ry="24.197" style="fill:#fff;stroke:#000;stroke-width:1.2px;"/></g><g><ellipse cx="315.11" cy="208.806" rx="15.784" ry="16.758" style="fill:#fde047;stroke:#000;stroke-width:1.2px;"/><path d="M317.127,198.353C322.777,199.348 331.07,203.424 331.728,205.399C332.146,206.651 331.902,208.281 330.384,208.088C329.689,207.999 325.425,204.217 316.014,202.896C308.522,201.844 301.302,203.299 300.346,202.757C298.873,201.921 299.587,199.966 300.809,199.28C302.802,198.162 309.756,197.055 317.127,198.353Z" style="fill:#fde047;stroke:#000;stroke-width:1.2px;"/><path d="M316.714,207.997C319.376,208.84 321.046,211.079 320.439,212.994C319.833,214.909 317.179,215.779 314.517,214.936C311.855,214.093 310.185,211.854 310.792,209.939C311.398,208.024 314.052,207.154 316.714,207.997Z" style="fill:#797162;stroke:#000;stroke-width:1.2px;"/><path d="M314.952,215.209L313.186,225.378" style="fill:none;stroke:#000;stroke-width:1.2px;"/></g><g><path d="M328.743,8.384C336.283,8.384 341.802,14.046 342.184,24.366C342.315,27.916 340.893,60.347 315.793,60.347C303.89,60.347 299.647,50.429 299.647,39.693C299.647,28.956 309.564,8.384 328.743,8.384Z" style="fill:#fff;stroke:#000;stroke-width:1.2px;"/><path d="M363.985,17.154C373.329,17.154 382.18,26.907 382.18,41.906C382.18,56.904 373.738,73.788 358.33,73.788C342.922,73.788 337.348,62.396 337.348,52.151C337.348,41.906 345.217,17.154 363.985,17.154Z" style="fill:#fff;stroke:#000;stroke-width:1.2px;"/><path d="M332.909,35.039C335.822,36.087 336.754,40.919 334.99,45.822C333.226,50.725 329.429,53.855 326.516,52.806C323.603,51.758 322.67,46.927 324.434,42.024C326.198,37.121 329.996,33.991 332.909,35.039Z"/><path d="M331.371,40.448C332.828,40.772 333.605,42.863 333.104,45.115C332.603,47.367 331.014,48.933 329.557,48.609C328.099,48.285 327.323,46.193 327.824,43.941C328.324,41.689 329.914,40.124 331.371,40.448Z" style="fill:#fff;"/><path d="M357.556,41.405C360.711,42.243 362.147,47.164 360.76,52.388C359.372,57.612 355.684,61.174 352.529,60.336C349.374,59.498 347.938,54.576 349.325,49.352C350.713,44.128 354.401,40.567 357.556,41.405Z"/><path d="M355.645,46.393C357.117,46.643 357.998,48.693 357.612,50.967C357.225,53.242 355.717,54.885 354.245,54.635C352.773,54.385 351.892,52.336 352.279,50.061C352.665,47.787 354.174,46.143 355.645,46.393Z" style="fill:#fff;"/></g><g><path d="M325.518,55.269C333.234,54.661 340.022,60.809 340.666,68.99C341.311,77.171 335.57,84.307 327.855,84.915C320.139,85.523 313.351,79.375 312.706,71.194C312.062,63.013 317.802,55.877 325.518,55.269Z" style="fill:#e21932;stroke:#000;stroke-width:1.2px;"/><ellipse cx="326.933" cy="66.886" rx="5.179" ry="5.391" style="fill:#fff;"/></g><path d="M320.669,83.46C317.641,91.14 315.902,99.033 315.129,107.088" style="fill:none;stroke:#000;stroke-width:1.2px;"/><g><path d="M296.737,67.132L268.972,27.247" style="fill:none;stroke:#000;stroke-width:1.2px;"/><path d="M292.932,76.293L250.157,48.458" style="fill:none;stroke:#000;stroke-width:1.2px;"/><path d="M289.972,87.357L245.435,75.307" style="fill:none;stroke:#000;stroke-width:1.2px;"/><path d="M360.3,82.213L412.377,68.401" style="fill:none;stroke:#000;stroke-width:1.2px;"/><path d="M361.146,92.36L415.477,91.585" style="fill:none;stroke:#000;stroke-width:1.2px;"/><path d="M361.146,103.354L415.548,113.783" style="fill:none;stroke:#000;stroke-width:1.2px;"/></g></g><g id="Doraemon"><g id="Doraemo"><g id="g14982"><path id="path101948" d="M417.228,261.939L386.946,263.224L386.832,260.068L433.988,255.496L436.263,217.908C436.437,215.034 435.331,212.225 433.243,210.241C431.156,208.257 428.294,207.295 425.432,207.615L344.115,216.71C340.921,217.067 338.009,218.718 336.062,221.274C334.114,223.831 333.297,227.078 333.801,230.252L336.325,246.135C325.104,238.841 310.052,236.133 295.637,236.837C283.472,237.481 268.957,242.627 263.518,246.528C262.007,247.611 260.787,248.948 260.447,250.488C247.582,241.368 233.426,239.919 221.283,241.437C209.212,242.422 201.624,244.357 189.873,247.225C187.556,248.224 182.319,251.328 181.848,253.714C169.584,244.055 149.627,245.286 133.466,250.318C132.083,239.325 127.656,228.971 121.329,221.055C110.74,209.349 93.862,201.075 78.879,197.236C65.295,193.756 50.328,194.387 36.789,197.373L16.715,201.801C10.388,203.196 6.005,209.526 6.948,215.936C12.135,251.206 18.151,288.761 23.298,323.924C24.041,329.004 28.792,332.916 33.896,332.363C57.687,329.784 84.75,322.287 99.631,312.734C99.972,333.002 119.539,354.256 141.658,354.869C151.78,355.035 161.108,353.088 168.583,349.707L168.019,355.156C156.934,360.841 150.03,374.787 152.904,385.775C156.358,398.983 169.418,411.126 182.259,414.721C194.447,418.132 212.614,414.41 220.727,404.269C231.297,391.057 227.291,373.204 218.131,363.257L220.181,349.015L257.088,383.028C259.79,385.517 263.584,386.464 267.138,385.534L302.462,376.297C313.42,372.915 307.337,360.602 300.481,355.08C308.096,355.342 312.424,353.719 319.051,349.996C322.435,351.31 325.131,350.8 328.815,350.058L351.538,345.482L353.826,363.591C354.233,366.813 356.043,369.698 358.767,371.467C361.492,373.236 364.863,373.716 367.972,372.777L424.509,355.709C429.935,354.071 433.207,348.439 431.942,342.914L427.498,323.496C425.963,317.561 421.792,315.143 418.091,315.48L393.514,317.693L393.353,316.281L419.932,315.13C423.656,314.968 427.38,310.597 427.664,307.052L430.529,271.355C430.859,267.238 425.159,261.954 417.228,261.939Z" style="fill:#fff;fill-opacity:0.99;fill-rule:nonzero;stroke:#0270ad;stroke-width:6px;stroke-linecap:butt;stroke-linejoin:miter;stroke-miterlimit:4;"/><path id="path4477" d="M489.49,260.378L456.263,223.223C453.499,220.132 449.171,218.923 445.204,220.133C441.237,221.344 438.322,224.764 437.755,228.872L426.021,313.85C425.352,318.698 427.969,323.442 432.427,325.461L457.265,336.709C459.96,337.929 463.081,337.8 465.667,336.362C468.252,334.923 470.007,332.339 470.39,329.405L472.467,313.523L484.531,329.831C486.486,332.473 489.735,333.847 492.992,333.408C496.25,332.97 499.02,330.785 500.205,327.719L512.88,294.952L525.575,321.124C526.691,323.425 528.706,325.167 531.143,325.94C533.58,326.712 536.231,326.449 538.468,325.211L568.177,308.78C569.7,307.906 570.733,305.18 570.751,302.654C589.799,306.829 611.707,299.063 624.222,284.252C634.837,272.229 639.399,251.852 637.677,235.855C637.173,223.493 632.253,210.079 623.667,200.652C616.089,191.887 600.277,187.561 588.924,189.354C569.701,192.39 552.882,204.991 542.346,223.331L532.514,200.085C530.864,196.183 526.998,193.654 522.762,193.707C518.526,193.759 514.723,196.381 513.169,200.322L489.49,260.378Z" style="fill:#fff;fill-opacity:0.99;fill-rule:nonzero;stroke:#0270ad;stroke-width:6px;stroke-linecap:butt;stroke-linejoin:miter;stroke-miterlimit:4;"/><path d="M255.928,324.442C258.714,326.628 263.025,330.342 263.025,330.342C263.025,330.342 262.08,324.665 261.753,320.654C261.405,316.403 261.437,310.781 261.437,310.781C261.437,310.781 258.012,313.665 255.515,315.437C253.685,316.735 248.758,319.225 248.758,319.225C248.758,319.225 252.308,321.599 255.928,324.442Z" style="fill:#0270ad;"/></g><path id="path2807-0" d="M598.474,200.954C625.983,200.954 632.201,219.06 632.201,245.812C632.201,268.002 612.674,293.205 585.182,293.205C557.69,293.205 548.47,271.309 548.47,254.395C548.47,223.685 573.69,200.954 598.474,200.954Z" style="fill:#034b86;fill-rule:nonzero;"/><path id="path2807" d="M592.836,198.162C620.346,198.162 626.564,216.267 626.564,243.019C626.564,265.209 607.036,290.412 579.544,290.412C552.052,290.412 542.833,268.516 542.833,251.602C542.833,220.892 568.052,198.162 592.836,198.162Z" style="fill:#0097d6;fill-rule:nonzero;"/><path id="path2772-9" d="M452.621,230.848L496.973,280.778L527.082,205.282L564.534,300.811L538.119,315.464L515.327,267.796L495.384,321.702L469.261,286.035L463.304,326.661L441.138,316.25L452.621,230.848Z" style="fill:#034b86;fill-rule:nonzero;"/><path id="path2772" d="M446.395,228.123L490.747,278.054L520.856,202.557L558.308,298.086L531.893,312.739L509.102,265.072L489.158,318.978L463.035,283.31L457.078,323.936L434.912,313.525L446.395,228.123Z" style="fill:#0097d6;fill-rule:nonzero;"/><rect x="421.815" y="257.089" width="10.69" height="7.587" style="fill:#0270ad;"/><path id="path2770-2" d="M346.521,229.427L427.034,220.05L427.427,248.022L376.801,252.843L379.094,276.863L420.375,274.898L419.86,305.991L383.096,307.795L386.187,331.058L418.427,328.58L422.848,347.534L366.907,363.289L346.521,229.427Z" style="fill:#034b86;fill-rule:nonzero;"/><path id="path2770" d="M342.149,225.139L422.662,215.761L423.055,243.734L372.429,248.554L374.722,272.575L416.003,270.61L415.488,301.702L378.724,303.507L381.815,326.77L414.055,324.291L418.476,343.246L362.535,359.001L342.149,225.139Z" style="fill:#0097d6;fill-rule:nonzero;"/><path id="path547-3" d="M235.449,254.949C218.287,254.949 194.489,260.28 194.489,260.28L180.018,364.104C180.018,364.104 168.286,368.144 168.286,380.337C168.286,397.408 186.668,406.906 198.768,406.906C210.868,406.906 222.082,400.327 222.082,387.385C222.082,374.443 208.528,366.758 208.528,366.758L214.415,329.67L265.299,375.663L298.589,367.114L235.645,317.122C235.645,317.122 269.46,309.153 269.46,281.418C269.46,265.939 251.999,254.949 235.449,254.949ZM228.609,269.613C231.812,269.638 235.059,270.649 237.866,272.495C245.04,277.213 247.553,286.061 243.479,292.258C239.404,298.454 230.284,299.653 223.109,294.934C215.935,290.215 213.422,281.368 217.497,275.172C219.822,271.636 223.939,269.576 228.609,269.613Z" style="fill:#034b86;fill-rule:nonzero;"/><path id="path547" d="M231.708,251.848C214.546,251.848 190.748,257.178 190.748,257.178L176.276,361.002C176.276,361.002 164.544,365.043 164.544,377.235C164.544,394.306 182.926,403.805 195.026,403.805C207.126,403.805 218.341,397.225 218.341,384.283C218.341,371.341 204.787,363.656 204.787,363.656L210.674,326.568L261.558,372.561L294.848,364.012L231.904,314.02C231.904,314.02 265.718,306.051 265.718,278.316C265.718,262.837 248.258,251.848 231.708,251.848ZM224.868,266.511C228.07,266.536 231.318,267.547 234.125,269.394C241.299,274.112 243.812,282.959 239.738,289.156C235.663,295.353 226.543,296.551 219.368,291.832C212.194,287.114 209.681,278.266 213.756,272.07C216.08,268.535 220.198,266.475 224.868,266.511Z" style="fill:#0097d6;fill-rule:nonzero;"/><path id="path299-6" d="M161.111,258.188C129.481,258.188 111.791,289.711 111.791,312.541C111.791,326.326 125.542,346.147 146.298,346.147C172.318,346.147 195.508,319.776 195.508,293.094C195.508,275.117 177.942,258.188 161.111,258.188ZM148.361,276.422C160.563,276.422 167.358,285.018 167.358,294.906C167.358,304.793 159.65,316.18 150.848,316.18C142.046,316.18 132.656,307.727 132.656,296.753C132.656,285.779 143.083,276.422 148.361,276.422Z" style="fill:#034b86;fill-rule:nonzero;"/><path id="path299" d="M156.869,254.899C125.239,254.899 107.549,286.422 107.549,309.252C107.549,323.037 121.3,342.858 142.056,342.858C168.076,342.858 191.266,316.487 191.266,289.805C191.266,271.828 173.7,254.899 156.869,254.899ZM144.119,273.133C156.321,273.133 163.116,281.729 163.116,291.617C163.116,301.504 155.408,312.891 146.606,312.891C137.804,312.891 128.414,304.438 128.414,293.464C128.414,282.49 138.841,273.133 144.119,273.133Z" style="fill:#0097d6;fill-rule:nonzero;"/><path id="path55-3" d="M49.188,210.116C38.118,210.08 27.787,211.474 19.808,214.258L35.461,323.49C35.461,323.49 132.729,318.271 125.24,250.22C122.269,223.216 82.4,210.225 49.188,210.116ZM66.337,237.902C81.362,237.938 91.089,251.366 91.089,261.958C91.089,272.55 86.894,285.841 71.848,285.841C57.753,285.841 47.292,268.677 47.119,258.85C47.002,252.246 53.447,237.872 66.337,237.902Z" style="fill:#034b86;fill-rule:nonzero;"/><path id="path55" d="M44.52,205.229C33.514,206.424 23.402,208.078 15.211,210.294L30.864,319.526C30.864,319.526 128.131,314.307 120.643,246.256C117.671,219.252 77.519,201.645 44.52,205.229ZM61.74,233.938C76.765,233.974 86.492,247.402 86.492,257.994C86.492,268.586 82.297,281.877 67.251,281.877C53.156,281.877 42.694,264.713 42.521,254.886C42.405,248.282 48.85,233.908 61.74,233.938Z" style="fill:#0097d6;fill-rule:nonzero;"/><g><circle cx="303.537" cy="315.149" r="13.039" style="fill:#e81737;stroke:#000;stroke-width:1px;"/><path d="M303.537,307.724L304.624,295.59" style="fill:none;stroke:#000;stroke-width:2px;"/></g><path id="path1272-2" d="M303.991,249.127C287.077,249.127 272.79,257.134 272.79,257.134L281.777,277.371C281.777,277.371 297.701,266.834 308.682,266.834C316.563,266.834 326.15,270.645 326.419,275.941L326.777,286.098C326.777,286.098 321.402,280.016 308.263,280.016C298.73,280.016 271.791,290.02 271.791,321.042C271.791,334.833 284.336,346.873 300.556,346.873C314.68,346.873 325.727,335.908 325.727,335.908L326.433,341.932L350.311,337.129L344.755,272.957C343.675,260.488 325.797,249.127 303.991,249.127ZM299.323,299.582C307.764,299.582 315.641,306.218 315.641,313.919C315.641,321.619 311.25,329.415 302.695,329.415C294.14,329.415 287.134,322.945 287.134,313.23C287.134,303.516 294.436,299.582 299.323,299.582Z" style="fill:#034b86;fill-rule:nonzero;"/><path id="path1272" d="M298.957,244.982C282.043,244.982 267.756,252.989 267.756,252.989L276.743,273.226C276.743,273.226 292.667,262.689 303.647,262.689C311.528,262.689 321.116,266.5 321.385,271.796L321.743,281.953C321.743,281.953 316.368,275.871 303.229,275.871C293.696,275.871 266.757,285.874 266.757,316.897C266.757,330.688 279.302,342.728 295.522,342.728C309.645,342.728 320.692,331.762 320.692,331.762L321.398,337.787L345.277,332.984L339.721,268.812C338.641,256.343 320.762,244.982 298.957,244.982ZM294.289,295.437C302.73,295.437 310.607,302.073 310.607,309.773C310.607,317.474 306.216,325.27 297.661,325.27C289.105,325.27 282.1,318.8 282.1,309.085C282.1,299.37 289.402,295.437 294.289,295.437Z" style="fill:#0097d6;fill-rule:nonzero;"/></g><g id="N"><path id="path4491" d="M619.401,306.17L640.524,316.095C643.289,317.394 646.519,317.276 649.182,315.778C651.845,314.281 653.623,311.582 653.949,308.544L655.762,291.632L673.477,318.182C664.51,324.25 658.73,338.415 661.838,348.091C665.226,358.635 676.068,368.148 687.381,372.036C702.665,377.288 722.579,375.81 732.171,361.805C738.796,352.133 738.157,340.392 735.296,333.22C733.269,328.139 728.996,323.45 725.14,320.444L743.969,213.978C745.006,208.114 741.089,202.422 735.242,201.295L712.893,196.986C709.562,196.344 706.11,197.114 703.369,199.113C700.628,201.111 698.837,204.161 698.429,207.529L692.447,256.91L643.584,188.254C641.1,184.764 636.7,183.153 632.549,184.215C628.398,185.276 625.312,188.802 624.809,193.057L612.832,294.34C612.248,299.274 614.905,304.057 619.401,306.17Z" style="fill:#fff;fill-rule:nonzero;stroke:#0270ad;stroke-width:6px;stroke-linecap:butt;stroke-linejoin:miter;stroke-miterlimit:4;"/><path id="path3355-9" d="M635.484,196.962L623.524,298.181L642.946,308.58L649.213,262.467L688.885,325.393C680.701,327.729 675.045,333.111 673.804,339.743C673.803,339.75 673.802,339.757 673.8,339.764C671.773,350.755 682.436,362.076 697.431,364.855C697.441,364.857 697.451,364.858 697.461,364.86C712.458,367.627 726.47,360.867 728.513,349.88C730.151,341.067 723.675,331.772 712.636,327.091L732.638,213.87L708.871,209.174L699.688,288.219L635.484,196.962Z" style="fill:#034b86;fill-rule:nonzero;"/><path id="path3355" d="M633.148,192.634L621.187,293.854L640.61,304.252L646.876,258.139L686.549,321.066C678.365,323.402 672.708,328.783 671.468,335.416C671.467,335.423 671.466,335.43 671.464,335.437C669.437,346.427 680.1,357.749 695.095,360.527C695.105,360.529 695.115,360.531 695.125,360.533C710.122,363.299 724.134,356.54 726.177,345.552C727.815,336.74 721.339,327.444 710.3,322.764L730.302,209.543L706.535,204.847L697.352,283.891L633.148,192.634Z" style="fill:#0097d6;fill-rule:nonzero;"/></g><g><path d="M57.325,179.945C45.949,179.945 36.703,189.307 36.703,200.851C36.703,212.395 45.949,221.757 57.325,221.757C68.701,221.757 77.947,212.395 77.947,200.851C77.947,189.307 68.701,179.945 57.325,179.945Z" style="fill:#034b86;"/><path d="M96.38,178.098C85.004,178.098 75.757,187.46 75.757,199.005C75.757,210.549 85.004,219.911 96.38,219.911C107.756,219.911 117.002,210.549 117.002,199.005C117.002,187.46 107.756,178.098 96.38,178.098Z" style="fill:#034b86;"/><ellipse cx="60.733" cy="196.377" rx="19.172" ry="19.456" style="fill:#fff;stroke:#0097d6;stroke-width:2.9px;"/><ellipse cx="99.717" cy="195.312" rx="19.172" ry="19.456" style="fill:#fff;stroke:#0097d6;stroke-width:2.9px;"/><ellipse cx="72.059" cy="195.206" rx="6.852" ry="6.781" style="fill:#0097d6;"/><ellipse cx="87.539" cy="194.851" rx="6.852" ry="6.781" style="fill:#0097d6;"/></g><g><path d="M588.011,223.06C588.853,220.887 590.965,219.345 593.433,219.345C596.641,219.345 599.246,221.949 599.246,225.157C599.246,225.958 599.084,226.721 598.79,227.415C604.673,231.727 608.496,238.687 608.496,246.532C608.496,259.606 597.882,270.22 584.808,270.22C571.735,270.22 561.121,259.606 561.121,246.532C561.121,233.459 571.735,222.845 584.808,222.845C585.895,222.845 586.964,222.918 588.011,223.06Z" style="fill:#ffce38;stroke:#034b86;stroke-width:3.5px;"/><path d="M561.385,243.354C559.32,240.811 558.221,237.957 559.223,235.485C561.474,229.933 574.843,230.105 589.06,235.869C603.277,241.632 612.992,250.819 610.742,256.371C609.83,258.621 606.955,260.202 603.957,260.377" style="fill:#ffce38;stroke:#034b86;stroke-width:3.5px;"/><path d="M574.363,267.795L582.347,253.934" style="fill:none;stroke:#034b86;stroke-width:3.5px;"/><circle cx="582.075" cy="251.353" r="5.094" style="fill:#034b86;"/></g><g><path d="M703.327,325.572C714.701,328.515 722.103,337.985 719.847,346.705C717.59,355.426 706.524,360.117 695.149,357.174C683.775,354.231 676.373,344.761 678.629,336.04C680.886,327.319 691.952,322.628 703.327,325.572Z" style="fill:#fab7d6;"/><path d="M700.286,329.747C708.346,332.006 713.493,338.823 711.773,344.959C710.053,351.096 702.113,354.244 694.053,351.985C685.993,349.726 680.845,342.91 682.565,336.773C684.285,330.636 692.226,327.488 700.286,329.747Z" style="fill:#ead2ea;"/></g></g><g id="_-小叮铃" serif:id=" 小叮铃"><g><circle cx="176.475" cy="244.684" r="1.588" style="fill:#fff;stroke:#000;stroke-width:1.2px;"/><ellipse cx="180.142" cy="243.835" rx="3.055" ry="3.695" style="fill:#fff;stroke:#000;stroke-width:1.2px;"/><ellipse cx="176.004" cy="240.583" rx="2.628" ry="2.71" style="fill:#fff;stroke:#000;stroke-width:1.2px;"/><ellipse cx="176.841" cy="248.942" rx="3.104" ry="3.219" style="fill:#fff;stroke:#000;stroke-width:1.2px;"/><ellipse cx="172.309" cy="245.576" rx="3.202" ry="3.695" style="fill:#fff;stroke:#000;stroke-width:1.2px;"/><path d="M176.647,244.256L182.408,243.588" style="fill:none;stroke:#000;stroke-width:1.2px;"/></g><path d="M196.388,266.826C193.786,272.657 188.044,277.682 182.571,277.682C177.098,277.682 172.523,273.555 172.523,265.39C172.523,257.226 177.996,249.69 182.481,247.626" style="fill:#fff;stroke:#000;stroke-width:1.2px;"/><g><path d="M181.469,247.306C181.634,242.445 181.901,237.387 182.465,234.756C183.178,231.427 190.549,219.539 190.549,219.539C190.549,219.539 224.293,223.412 227.798,222.472C231.047,221.6 232.52,216.909 236.595,212.01C239.55,208.458 242.618,208.602 244.124,208.602C245.63,208.602 248.076,211.459 247.928,214.863C247.77,218.509 236.833,230.873 231.523,231.507L231.503,231.514C232.051,250.255 235.361,260.558 233.346,262.97C228.49,268.784 224.159,263.047 214.245,263.129C204.332,263.211 201.565,268.597 193.164,268.597C184.129,268.597 178.661,261.227 178.661,254.649C178.661,248.158 180.358,247.995 181.469,247.306Z" style="fill:#fce047;"/><path d="M231.444,223.977C231.127,247.516 235.616,260.252 233.346,262.97C228.49,268.784 224.159,263.047 214.245,263.129C204.332,263.211 201.565,268.597 193.164,268.597C184.129,268.597 178.661,261.227 178.661,254.649C178.661,248.071 180.404,247.991 181.514,247.278" style="fill:none;stroke:#000;stroke-width:1.2px;"/><path d="M181.355,251.082C181.514,245.297 181.751,238.085 182.465,234.756C183.178,231.427 190.549,219.539 190.549,219.539C190.549,219.539 224.293,223.412 227.798,222.472C231.047,221.6 232.52,216.909 236.595,212.01C239.55,208.458 242.618,208.602 244.124,208.602C245.63,208.602 248.076,211.459 247.928,214.863C247.77,218.509 236.833,230.873 231.523,231.507" style="fill:none;stroke:#000;stroke-width:1.2px;"/></g><g><path d="M188.964,242.285C188.964,250.369 195.7,257.977 210.204,257.977C224.707,257.977 231.523,245.138 231.523,238.639C231.523,232.141 225.896,222.472 211.234,222.472C196.572,222.472 188.964,230.793 188.964,242.285Z" style="fill:#fff;stroke:#000;stroke-width:1.2px;"/><g><g><clipPath id="_clip1"><path d="M194.683,239.911L226.981,238.027C226.981,238.027 229.134,254.534 210.473,254.534C191.812,254.534 194.683,239.911 194.683,239.911Z"/></clipPath><g clip-path="url(#_clip1)"><g><g><path d="M191.173,242.775L198.655,238.931" style="fill:none;stroke:#ff3b4a;stroke-width:0.8px;stroke-linecap:butt;"/><path d="M191.983,244.35L199.464,240.506" style="fill:none;stroke:#ff3b4a;stroke-width:0.8px;stroke-linecap:butt;"/><path d="M192.942,239.316L195.775,244.828" style="fill:none;stroke:#ff3b4a;stroke-width:0.8px;stroke-linecap:butt;"/><path d="M194.714,238.405L197.547,243.918" style="fill:none;stroke:#ff3b4a;stroke-width:0.8px;stroke-linecap:butt;"/></g><g><path d="M198.655,238.931L206.136,235.086" style="fill:none;stroke:#ff3b4a;stroke-width:0.8px;stroke-linecap:butt;"/><path d="M199.464,240.506L206.945,236.661" style="fill:none;stroke:#ff3b4a;stroke-width:0.8px;stroke-linecap:butt;"/><path d="M200.423,235.471L203.256,240.983" style="fill:none;stroke:#ff3b4a;stroke-width:0.8px;stroke-linecap:butt;"/><path d="M202.195,234.56L205.028,240.073" style="fill:none;stroke:#ff3b4a;stroke-width:0.8px;stroke-linecap:butt;"/></g><g><path d="M206.136,235.086L213.617,231.241" style="fill:none;stroke:#ff3b4a;stroke-width:0.8px;stroke-linecap:butt;"/><path d="M206.945,236.661L214.427,232.816" style="fill:none;stroke:#ff3b4a;stroke-width:0.8px;stroke-linecap:butt;"/><path d="M207.904,231.626L210.738,237.138" style="fill:none;stroke:#ff3b4a;stroke-width:0.8px;stroke-linecap:butt;"/><path d="M209.676,230.715L212.509,236.228" style="fill:none;stroke:#ff3b4a;stroke-width:0.8px;stroke-linecap:butt;"/></g><g><path d="M213.617,231.241L221.099,227.396" style="fill:none;stroke:#ff3b4a;stroke-width:0.8px;stroke-linecap:butt;"/><path d="M214.427,232.816L221.908,228.971" style="fill:none;stroke:#ff3b4a;stroke-width:0.8px;stroke-linecap:butt;"/><path d="M215.386,227.781L218.219,233.293" style="fill:none;stroke:#ff3b4a;stroke-width:0.8px;stroke-linecap:butt;"/><path d="M217.158,226.87L219.991,232.383" style="fill:none;stroke:#ff3b4a;stroke-width:0.8px;stroke-linecap:butt;"/></g></g><g><g><path d="M194.006,248.288L201.488,244.443" style="fill:none;stroke:#ff3b4a;stroke-width:0.8px;stroke-linecap:butt;"/><path d="M194.816,249.863L202.297,246.018" style="fill:none;stroke:#ff3b4a;stroke-width:0.8px;stroke-linecap:butt;"/><path d="M195.775,244.828L198.608,250.341" style="fill:none;stroke:#ff3b4a;stroke-width:0.8px;stroke-linecap:butt;"/><path d="M197.547,243.918L200.38,249.43" style="fill:none;stroke:#ff3b4a;stroke-width:0.8px;stroke-linecap:butt;"/></g><g><path d="M201.488,244.443L208.969,240.598" style="fill:none;stroke:#ff3b4a;stroke-width:0.8px;stroke-linecap:butt;"/><path d="M202.297,246.018L209.779,242.173" style="fill:none;stroke:#ff3b4a;stroke-width:0.8px;stroke-linecap:butt;"/><path d="M203.256,240.983L206.089,246.496" style="fill:none;stroke:#ff3b4a;stroke-width:0.8px;stroke-linecap:butt;"/><path d="M205.028,240.073L207.861,245.585" style="fill:none;stroke:#ff3b4a;stroke-width:0.8px;stroke-linecap:butt;"/></g><g><path d="M208.969,240.598L216.451,236.753" style="fill:none;stroke:#ff3b4a;stroke-width:0.8px;stroke-linecap:butt;"/><path d="M209.779,242.173L217.26,238.328" style="fill:none;stroke:#ff3b4a;stroke-width:0.8px;stroke-linecap:butt;"/><path d="M210.738,237.138L213.571,242.651" style="fill:none;stroke:#ff3b4a;stroke-width:0.8px;stroke-linecap:butt;"/><path d="M212.509,236.228L215.343,241.74" style="fill:none;stroke:#ff3b4a;stroke-width:0.8px;stroke-linecap:butt;"/></g><g><path d="M216.451,236.753L223.932,232.908" style="fill:none;stroke:#ff3b4a;stroke-width:0.8px;stroke-linecap:butt;"/><path d="M217.26,238.328L224.741,234.483" style="fill:none;stroke:#ff3b4a;stroke-width:0.8px;stroke-linecap:butt;"/><path d="M218.219,233.293L221.052,238.806" style="fill:none;stroke:#ff3b4a;stroke-width:0.8px;stroke-linecap:butt;"/><path d="M219.991,232.383L222.824,237.895" style="fill:none;stroke:#ff3b4a;stroke-width:0.8px;stroke-linecap:butt;"/></g></g><g><g><path d="M196.839,253.801L204.321,249.956" style="fill:none;stroke:#ff3b4a;stroke-width:0.8px;stroke-linecap:butt;"/><path d="M197.649,255.376L205.13,251.531" style="fill:none;stroke:#ff3b4a;stroke-width:0.8px;stroke-linecap:butt;"/><path d="M198.608,250.341L201.441,255.853" style="fill:none;stroke:#ff3b4a;stroke-width:0.8px;stroke-linecap:butt;"/><path d="M200.38,249.43L203.213,254.943" style="fill:none;stroke:#ff3b4a;stroke-width:0.8px;stroke-linecap:butt;"/></g><g><path d="M204.321,249.956L211.802,246.111" style="fill:none;stroke:#ff3b4a;stroke-width:0.8px;stroke-linecap:butt;"/><path d="M205.13,251.531L212.612,247.686" style="fill:none;stroke:#ff3b4a;stroke-width:0.8px;stroke-linecap:butt;"/><path d="M206.089,246.496L208.922,252.009" style="fill:none;stroke:#ff3b4a;stroke-width:0.8px;stroke-linecap:butt;"/><path d="M207.861,245.585L210.694,251.098" style="fill:none;stroke:#ff3b4a;stroke-width:0.8px;stroke-linecap:butt;"/></g><g><path d="M211.802,246.111L219.284,242.266" style="fill:none;stroke:#ff3b4a;stroke-width:0.8px;stroke-linecap:butt;"/><path d="M212.612,247.686L220.093,243.841" style="fill:none;stroke:#ff3b4a;stroke-width:0.8px;stroke-linecap:butt;"/><path d="M213.571,242.651L216.404,248.164" style="fill:none;stroke:#ff3b4a;stroke-width:0.8px;stroke-linecap:butt;"/><path d="M215.343,241.74L218.176,247.253" style="fill:none;stroke:#ff3b4a;stroke-width:0.8px;stroke-linecap:butt;"/></g><g><path d="M219.284,242.266L226.765,238.421" style="fill:none;stroke:#ff3b4a;stroke-width:0.8px;stroke-linecap:butt;"/><path d="M220.093,243.841L227.575,239.996" style="fill:none;stroke:#ff3b4a;stroke-width:0.8px;stroke-linecap:butt;"/><path d="M221.052,238.806L223.885,244.319" style="fill:none;stroke:#ff3b4a;stroke-width:0.8px;stroke-linecap:butt;"/><path d="M222.824,237.895L225.657,243.408" style="fill:none;stroke:#ff3b4a;stroke-width:0.8px;stroke-linecap:butt;"/></g></g><g><g><path d="M199.672,259.313L207.154,255.468" style="fill:none;stroke:#ff3b4a;stroke-width:0.8px;stroke-linecap:butt;"/><path d="M200.482,260.888L207.963,257.043" style="fill:none;stroke:#ff3b4a;stroke-width:0.8px;stroke-linecap:butt;"/><path d="M201.441,255.853L204.274,261.366" style="fill:none;stroke:#ff3b4a;stroke-width:0.8px;stroke-linecap:butt;"/><path d="M203.213,254.943L206.046,260.455" style="fill:none;stroke:#ff3b4a;stroke-width:0.8px;stroke-linecap:butt;"/></g><g><path d="M207.154,255.468L214.635,251.623" style="fill:none;stroke:#ff3b4a;stroke-width:0.8px;stroke-linecap:butt;"/><path d="M207.963,257.043L215.445,253.199" style="fill:none;stroke:#ff3b4a;stroke-width:0.8px;stroke-linecap:butt;"/><path d="M208.922,252.009L211.755,257.521" style="fill:none;stroke:#ff3b4a;stroke-width:0.8px;stroke-linecap:butt;"/><path d="M210.694,251.098L213.527,256.611" style="fill:none;stroke:#ff3b4a;stroke-width:0.8px;stroke-linecap:butt;"/></g><g><path d="M214.635,251.623L222.117,247.779" style="fill:none;stroke:#ff3b4a;stroke-width:0.8px;stroke-linecap:butt;"/><path d="M215.445,253.199L222.926,249.354" style="fill:none;stroke:#ff3b4a;stroke-width:0.8px;stroke-linecap:butt;"/><path d="M216.404,248.164L219.237,253.676" style="fill:none;stroke:#ff3b4a;stroke-width:0.8px;stroke-linecap:butt;"/><path d="M218.176,247.253L221.009,252.766" style="fill:none;stroke:#ff3b4a;stroke-width:0.8px;stroke-linecap:butt;"/></g><g><path d="M222.117,247.779L229.598,243.934" style="fill:none;stroke:#ff3b4a;stroke-width:0.8px;stroke-linecap:butt;"/><path d="M222.926,249.354L230.408,245.509" style="fill:none;stroke:#ff3b4a;stroke-width:0.8px;stroke-linecap:butt;"/><path d="M223.885,244.319L226.718,249.831" style="fill:none;stroke:#ff3b4a;stroke-width:0.8px;stroke-linecap:butt;"/><path d="M225.657,243.408L228.49,248.921" style="fill:none;stroke:#ff3b4a;stroke-width:0.8px;stroke-linecap:butt;"/></g></g></g></g><path d="M194.683,239.911L226.981,238.027C226.981,238.027 229.134,254.534 210.473,254.534C191.812,254.534 194.683,239.911 194.683,239.911Z" style="fill:none;stroke:#000;stroke-width:1.2px;"/></g></g><g><path d="M170.041,169.005C167.18,161.343 168.49,140.54 180.467,140.54C187.838,140.54 193.997,147.426 196.033,150.869" style="fill:#d12140;stroke:#000;stroke-width:1.2px;"/><path d="M202.968,149.414C206.653,141.655 211.6,134.478 217.564,134.478C223.529,134.478 231.045,147.862 227.845,155.524" style="fill:#d12140;stroke:#000;stroke-width:1.2px;"/><path d="M187.286,223.725C175.688,216.651 166.071,202.34 166.071,185.23C166.071,163.493 183.167,148.631 204.818,148.631C226.64,148.631 243.393,160.658 243.393,185.401C243.393,203.567 233.289,216.151 221.418,222.876" style="fill:#fce047;stroke:#000;stroke-width:1.2px;"/><path d="M210.574,154.902C228.013,154.902 243.478,166.015 243.478,185.573C243.478,206.794 234.028,225.781 209.801,225.781C178.614,225.781 171.311,203.357 171.311,189.611C171.311,167.274 188.924,154.902 210.574,154.902Z" style="fill:#fff;stroke:#000;stroke-width:1.2px;"/><g><path d="M192.102,170.452C196.828,170.452 199.405,178.7 199.405,184.542C199.405,190.384 196.57,193.391 192.446,193.391C188.322,193.391 184.284,189.697 184.284,183.769C184.284,177.841 187.034,170.452 192.102,170.452Z" style="fill:#fff;stroke:#000;stroke-width:1.2px;"/><path d="M186.174,170.195C186.768,170.951 187.298,171.77 187.756,172.661" style="fill:none;stroke:#000;stroke-width:1.2px;"/><path d="M190.384,170.71C190.231,169.409 189.967,168.182 189.611,167.016" style="fill:none;stroke:#000;stroke-width:1.2px;"/><path d="M194.508,171.14C194.629,169.866 194.712,168.669 194.766,167.531" style="fill:none;stroke:#000;stroke-width:1.2px;"/><path d="M197.343,185.298C196.179,181.952 192.687,179.091 189.148,180.449" style="fill:none;stroke:#000;stroke-width:1.2px;"/><path d="M197.343,185.298C194.239,183.213 190.845,183.019 188.905,184.377" style="fill:none;stroke:#000;stroke-width:1.89px;"/></g><g><path d="M224.835,169.078C228.616,169.078 231.794,175.264 231.794,181.449C231.794,187.635 229.99,191.072 225.437,191.072C220.883,191.072 219.337,187.807 219.337,181.106C219.337,174.404 221.141,169.078 224.835,169.078Z" style="fill:#fff;stroke:#000;stroke-width:1.2px;"/><ellipse cx="225.007" cy="180.762" rx="4.553" ry="9.021"/><path d="M223.202,178.315C224.198,178.338 224.968,179.955 224.921,181.922C224.874,183.889 224.028,185.467 223.032,185.443C222.036,185.42 221.266,183.803 221.313,181.836C221.36,179.869 222.206,178.291 223.202,178.315Z" style="fill:#fff;"/><path d="M222.76,169.709C222.56,168.661 222.029,167.862 221.288,167.22" style="fill:none;stroke:#000;stroke-width:1.2px;"/><path d="M226.848,169.683L226.975,166.002" style="fill:none;stroke:#000;stroke-width:1.2px;"/><path d="M229.235,172.146C230.428,171.435 230.454,170.166 230.708,168.744" style="fill:none;stroke:#000;stroke-width:1.2px;"/></g><g><ellipse cx="213.564" cy="193.849" rx="4.132" ry="3.099" style="fill:#f4c9d3;stroke:#000;stroke-width:1.2px;"/><path d="M205.166,192.55C208.565,189.684 213.24,188.301 215.269,191.192" style="fill:none;stroke:#000;stroke-width:1.2px;"/></g><g><path d="M223.229,199.348C224.229,199.681 224.762,200.481 224.762,201.814C224.762,203.347 223.446,205.355 219.38,205.355" style="fill:none;stroke:#000;stroke-width:1.2px;"/><path d="M202.802,210.809C200.832,207.383 199.929,203.523 200.501,202.88C201.221,202.069 209.716,205.355 219.38,205.355C219.38,205.355 218.029,208.351 216.084,211.226C214.499,209.618 212.146,208.146 209.565,208.146C206.863,208.146 204.724,209.055 202.802,210.809Z" style="fill:#d12140;"/><path d="M202.802,210.809C204.724,209.055 206.863,208.146 209.565,208.146C212.146,208.146 214.499,209.618 216.084,211.226C214.304,213.904 212.012,216.477 209.832,216.477C206.894,216.477 204.444,213.808 202.802,210.809Z" style="fill:#f37d33;"/><path d="M202.802,210.809C200.832,207.383 199.929,203.523 200.501,202.88C201.221,202.069 209.716,205.355 219.38,205.355C219.38,205.355 218.029,208.351 216.084,211.226" style="fill:none;stroke:#000;stroke-width:1.2px;"/><path d="M202.802,210.809C204.724,209.055 206.863,208.146 209.565,208.146C212.146,208.146 214.499,209.618 216.084,211.226C214.304,213.904 212.012,216.477 209.832,216.477C206.894,216.477 204.444,213.808 202.802,210.809Z" style="fill:none;stroke:#000;stroke-width:1.2px;"/></g><path d="M194.336,162.377C192.532,159.885 187.034,159.112 182.738,168.391" style="fill:none;stroke:#000;stroke-width:1.2px;"/><path d="M223.203,160.83C226.296,158.768 229.99,161.088 232.396,166.758" style="fill:none;stroke:#000;stroke-width:1.2px;"/></g><ellipse cx="250.821" cy="208.008" rx="8.599" ry="8.837" style="fill:#fff;stroke:#000;stroke-width:1.2px;"/><path d="M237.299,238.475C242.771,238.475 246.719,244.666 246.719,252.381C246.719,260.097 242.323,270.056 234.697,270.056C227.071,270.056 224.648,261.174 224.648,256.239C224.648,251.305 228.147,238.475 237.299,238.475Z" style="fill:#fff;stroke:#000;stroke-width:1.2px;"/><path d="M208.699,224.675C225.295,224.675 231.133,217.304 232.16,218.877C233.414,220.795 223.295,227.808 207.899,227.808C191.369,227.808 184.171,222.942 184.771,221.543C185.698,219.379 195.168,224.675 208.699,224.675Z" style="fill:#00adf0;stroke:#000;stroke-width:1.2px;"/><path d="M182.782,237.371C177.551,235.231 166.852,227.623 166.852,223.581C166.852,220.49 169.546,214.388 173.113,214.388C176.679,214.388 188.805,222.947 190.39,225.8" style="fill:#fce047;stroke:#000;stroke-width:1.2px;"/><ellipse cx="163.959" cy="214.903" rx="8.599" ry="8.837" style="fill:#fff;stroke:#000;stroke-width:1.2px;"/><g><circle cx="213.148" cy="231.59" r="6.382" style="fill:#fce047;stroke:#000;stroke-width:1.2px;"/><path d="M214.704,229.148C217.464,229.148 217.932,229.912 218.769,229.912C219.312,229.912 219.459,229.567 219.459,229C219.459,228.434 218.08,227.596 214.359,227.596C210.638,227.596 206.301,229.961 206.301,231.046C206.301,231.563 206.646,231.736 207.287,231.736C208.002,231.736 210.318,229.148 214.704,229.148Z" style="fill:#fce047;stroke:#000;stroke-width:1.2px;"/><circle cx="214.149" cy="232.487" r="1.515" style="fill:#fce047;stroke:#000;stroke-width:1.2px;"/><path d="M214.149,234.002C214.314,235.401 214.301,236.694 214.137,237.896" style="fill:none;stroke:#000;stroke-width:1.2px;"/></g></g><g id="大雄"><g><path d="M142.397,315.279C148.749,315.279 154.204,311.778 154.204,303.798C154.204,295.818 134.905,267.643 129.287,267.643C123.668,267.643 121.307,271.796 121.307,280.102C121.307,291.828 128.391,315.279 142.397,315.279Z" style="fill:#d0e4ee;stroke:#000;stroke-width:1.2px;"/><path d="M143.374,312.674C148.749,312.674 154.449,310.068 154.449,302.902C154.449,286.535 139.303,267.073 131.404,267.073C124.727,267.073 123.424,272.692 123.424,278.799C123.424,286.779 129.124,312.674 143.374,312.674Z" style="fill:#0267ab;stroke:#000;stroke-width:1.2px;"/><g><path d="M130.935,246.288C129.765,252.623 128.779,259.585 128.779,266.679C128.779,281.462 130.234,285.782 141.311,285.782C149.538,285.782 148.49,278.968 148.49,273.31C148.49,267.64 149.358,260.477 150.434,253.146C148.959,255.356 146.447,257.057 142.234,257.057C135.376,257.057 132.166,250.102 130.935,246.288Z" style="fill:#fff;"/><path d="M130.935,246.288C132.166,250.102 135.376,257.057 142.234,257.057C146.447,257.057 148.959,255.356 150.434,253.146C152.172,241.269 154.452,228.953 154.452,221.843C154.452,210.345 154.334,204.747 154.334,204.747L134.619,207.911C134.518,213.345 134.537,218.151 134.537,224.478C134.537,229.571 132.558,237.303 130.935,246.288Z" style="fill:#fcd39e;"/><path d="M130.935,246.288C129.765,252.623 128.779,259.585 128.779,266.679C128.779,281.462 130.234,285.782 141.311,285.782C149.538,285.782 148.49,278.968 148.49,273.31C148.49,267.64 149.358,260.477 150.434,253.146" style="fill:none;stroke:#000;stroke-width:1.2px;"/><path d="M130.935,246.288C132.166,250.102 135.376,257.057 142.234,257.057C146.447,257.057 148.959,255.356 150.434,253.146C152.172,241.269 154.452,228.953 154.452,221.843C154.452,210.345 154.334,204.747 154.334,204.747L134.619,207.911C134.518,213.345 134.537,218.151 134.537,224.478C134.537,229.571 132.558,237.303 130.935,246.288Z" style="fill:none;stroke:#000;stroke-width:1.2px;"/></g><path d="M141.827,291.502C150.667,291.502 149.955,285.493 149.563,280.509C145.612,278.104 138.043,278.081 130.671,281.16C130.687,284.594 132.988,291.502 141.827,291.502Z" style="fill:#d0e4ee;stroke:#000;stroke-width:1.2px;"/></g><g><g><path d="M90.608,230.837C90.608,242.155 93.213,253.718 103.066,253.718C112.919,253.718 114.955,231.814 114.955,231.814C114.955,231.814 112.268,205.349 103.066,205.349C93.865,205.349 90.608,217.156 90.608,230.837Z" style="fill:#d0e4ee;stroke:#000;stroke-width:1.2px;"/><path d="M92.806,230.837C92.806,243.865 96.308,253.963 103.881,253.963C111.454,253.963 117.072,247.285 117.072,229.941C117.072,212.596 109.418,205.105 103.474,205.105C97.529,205.105 92.806,213.004 92.806,230.837" style="fill:#0267ab;stroke:#000;stroke-width:1.2px;"/><path d="M100.047,226.168C100.147,232.68 101.194,240.038 108.522,240.038C112.784,240.038 114.598,237.244 115.337,233.517C114.458,234.691 113.407,235.375 112.187,235.234C107.698,234.713 102.949,229.983 100.047,226.168Z" style="fill:#d0e4ee;"/><path d="M100.047,226.168C102.949,229.983 107.698,234.713 112.187,235.234C113.407,235.375 114.458,234.691 115.337,233.517C115.892,230.988 115.932,228.023 115.932,225.218C115.932,218.296 113.489,208.118 106.975,208.118C101.275,208.118 99.972,217.319 99.972,223.019L100.047,226.168Z" style="fill:#fff;"/><path d="M100.047,226.168C102.949,229.983 107.698,234.713 112.187,235.234C113.407,235.375 114.458,234.691 115.337,233.517C115.892,230.988 115.932,228.023 115.932,225.218C115.932,218.296 113.489,208.118 106.975,208.118C101.275,208.118 99.972,217.319 99.972,223.019L100.047,226.168Z" style="fill:none;stroke:#000;stroke-width:1.2px;"/><path d="M100.047,226.168C100.147,232.68 101.194,240.038 108.522,240.038C112.784,240.038 114.598,237.244 115.337,233.517" style="fill:none;stroke:#000;stroke-width:1.2px;"/></g><path d="M107.121,219.227C106.513,214.116 107.121,205.964 107.121,205.964L128.292,208.276C128.028,219.363 126.042,236.139 114.422,236.139C107.304,236.139 103.775,228.656 103.775,222.755C103.775,218.071 105.444,215.396 106.854,214.299" style="fill:#fcd39e;stroke:#000;stroke-width:1.2px;"/></g><g><path d="M130.929,202.143C134.048,206.075 132.551,210.649 134.741,210.649C138.209,210.649 141.068,209.128 148.672,209.128C152.14,209.128 155.729,209.554 155.729,209.554C155.729,209.554 156.034,173.234 155.243,171.774C154.452,170.314 115.03,171.105 111.319,174.025C107.608,176.945 105.418,181.995 105.418,192.885C105.418,200.246 106.446,205.292 105.539,207.059C105.104,207.909 112.901,212.596 121.357,212.596C127.197,212.596 129.731,211.071 129.631,209.615C129.451,207.016 129.683,204.389 130.929,202.143Z" style="fill:#0266b1;"/><path d="M130.929,202.143C134.048,206.075 132.551,210.649 134.741,210.649C138.209,210.649 141.068,209.128 148.672,209.128C152.14,209.128 155.729,209.554 155.729,209.554C155.729,209.554 156.034,173.234 155.243,171.774C154.452,170.314 115.03,171.105 111.319,174.025C107.608,176.945 105.418,181.995 105.418,192.885C105.418,200.246 106.446,205.292 105.539,207.059C105.104,207.909 112.901,212.596 121.357,212.596C127.197,212.596 129.731,211.071 129.631,209.615C129.266,204.322 130.604,198.907 138.756,196.839" style="fill:none;stroke:#000;stroke-width:1.2px;"/></g><g><path d="M197.038,59.349L197.038,59.348C198.388,54.305 202.109,48.896 204.063,48.896C205.235,48.896 205.945,49.784 205.945,50.956C205.945,52.632 202.936,56.88 201.505,64.24C203.599,59.763 209.558,51.347 212.232,51.347C213.298,51.347 213.83,52.412 213.83,53.62C213.83,55.669 208.958,60.473 206.265,67.33C210.292,62.385 214.693,59.374 216.068,59.374C217.631,59.374 218.235,60.84 218.235,62.073C218.235,64.169 208.966,70.298 210.208,71.77C211.207,72.956 217.098,68.609 218.377,68.609C219.371,68.609 219.833,69.639 219.833,70.704C219.833,73.972 215.003,75.109 211.948,78.412C210.258,80.24 210.778,83.187 208.041,86.333C205.661,89.068 203.281,90.737 200.156,90.275C198.421,90.019 190.572,82.306 190.282,79.406C189.323,69.816 191.738,68.68 191.738,65.199C191.738,60.83 190.566,60.582 190.566,57.705C190.566,55.822 191.099,54.65 192.448,54.65C193.744,54.65 195.88,56.801 197.038,59.349Z" style="fill:#fcd39e;"/><path d="M197.038,59.348C198.388,54.305 202.109,48.896 204.063,48.896C205.235,48.896 205.945,49.784 205.945,50.956C205.945,52.632 202.936,56.88 201.505,64.24C203.599,59.763 209.558,51.347 212.232,51.347C213.298,51.347 213.83,52.412 213.83,53.62C213.83,55.669 208.958,60.473 206.265,67.33C210.292,62.385 214.693,59.374 216.068,59.374C217.631,59.374 218.235,60.84 218.235,62.073C218.235,64.169 208.966,70.298 210.208,71.77C211.207,72.956 217.098,68.609 218.377,68.609C219.371,68.609 219.833,69.639 219.833,70.704C219.833,73.972 215.003,75.109 211.948,78.412C210.258,80.24 210.778,83.187 208.041,86.333C205.661,89.068 203.281,90.737 200.156,90.275C198.421,90.019 190.572,82.306 190.282,79.406C189.323,69.816 191.738,68.68 191.738,65.199C191.738,60.83 190.566,60.582 190.566,57.705C190.566,55.822 191.099,54.65 192.448,54.65C194.295,54.65 197.847,59.019 197.847,62.677C197.847,66.336 197.527,66.797 197.527,66.797C197.527,66.797 201.648,69.284 201.292,74.008" style="fill:none;stroke:#000;stroke-width:1.2px;"/><path d="M199.872,63.991C202.926,64.347 205.128,66.371 208.112,69.497" style="fill:none;stroke:#000;stroke-width:1.2px;"/></g><g><path d="M109.016,116.399C111.558,117.725 127.143,117.504 138.75,116.288C150.356,115.072 148.366,119.825 157.319,111.646C166.273,103.466 187.997,79.533 190.259,78.817C192.038,78.254 200.096,85.753 200.096,89.981C200.096,93.217 191.238,104.682 183.611,112.972C176.003,121.242 165.528,132.156 156.765,142.991C157.35,152.229 157.146,159.927 157.146,162.914C157.146,164.806 156.325,164.579 156.325,166.471C156.325,168.574 157.362,168.794 157.362,170.897C157.362,172.299 157.191,177.856 143.392,177.856C129.593,177.856 107.689,178.609 107.689,171.998C107.689,168.383 110.563,169.013 110.563,158.512C110.563,151.653 109.803,147.633 108.795,144.032L104.417,127.712L109.016,116.399Z" style="fill:#e31351;"/><path d="M155.44,130.105C157.571,144.499 157.146,158.607 157.146,162.914C157.146,164.806 156.325,164.579 156.325,166.471C156.325,168.574 157.362,168.794 157.362,170.897C157.362,172.299 157.191,177.856 143.392,177.856C129.593,177.856 107.689,178.609 107.689,171.998C107.689,168.383 110.563,169.013 110.563,158.512C110.563,151.653 109.803,147.633 108.795,144.032" style="fill:none;stroke:#000;stroke-width:1.2px;"/><path d="M109.016,116.399C111.558,117.725 127.143,117.504 138.75,116.288C150.356,115.072 148.366,119.825 157.319,111.646C166.273,103.466 187.997,79.533 190.259,78.817C192.038,78.254 200.096,85.753 200.096,89.981C200.096,93.217 191.238,104.682 183.611,112.972C175.984,121.262 165.478,132.209 156.703,143.068" style="fill:none;stroke:#000;stroke-width:1.2px;"/><ellipse cx="136.152" cy="127.194" rx="13.52" ry="5.259" style="fill:#fcd39e;stroke:#000;stroke-width:1.2px;"/><path d="M121.059,145.745C116.801,136.053 110.846,122.451 117.332,118.208C119.459,124.864 126.109,129.565 134.848,132.577C129.449,135.877 124.912,140.347 121.059,145.745" style="fill:#fff;stroke:#000;stroke-width:1.2px;"/><path d="M149.59,143.84C151.667,135.663 152.164,127.338 150.708,118.829C148.056,125.628 144.332,130.679 138.699,132.618C142.607,136.026 146.234,139.77 149.59,143.84Z" style="fill:#fff;stroke:#000;stroke-width:1.2px;"/></g><g id="Head"><path d="M166.428,85.044C169.151,84.999 170.058,86.995 170.058,90.762C170.058,94.529 168.334,97.66 166.519,98.114" style="fill:#fcd39e;stroke:#000;stroke-width:1.2px;"/><path d="M136.977,128.958C147.885,128.958 167.964,115.572 167.964,102.847C167.964,98.798 165.733,95.244 165.733,91.195C165.733,89.89 166.017,87.12 166.435,84.42C167.252,79.126 168.058,72.74 167.469,65.579L138.63,56.986C138.63,56.986 102.437,63.679 102.437,72.603C102.437,81.527 103.759,92.104 103.759,99.872C103.759,107.639 117.31,128.958 136.977,128.958Z" style="fill:#fcd39e;stroke:#000;stroke-width:1.2px;"/><path d="M135.592,45.271C152.202,45.271 164.661,59.19 169.044,66.105C164.069,64.958 154.163,63.17 144.542,63.17C127.676,63.17 116.947,65.956 107.129,73.294L108.156,101.757C108.156,101.757 97.592,96.475 97.592,78.723C97.592,60.97 108.303,58.035 108.303,58.035C112.287,50.654 120.261,45.271 135.592,45.271Z" style="fill:#413e2b;stroke:#000;stroke-width:1.2px;"/><g id="Mouth"><path d="M125.017,116.232C123.059,113.426 121.938,110.433 121.938,108.383C121.938,107.391 122.764,106.896 123.756,106.896C127.581,106.896 148.463,110.612 152.595,110.612C153.707,110.612 154.723,110.456 155.615,110.197C155.615,110.197 151.744,116.062 146.588,120.162L146.603,120.144C143.787,116.694 139.794,114.202 133.931,114.202C127.592,114.202 125.297,115.986 125.017,116.232Z" style="fill:#e46b5c;"/><path d="M125.017,116.232C125.297,115.986 127.592,114.202 133.931,114.202C139.794,114.202 143.787,116.694 146.603,120.144L146.588,120.162C143.827,122.435 140.668,124.166 137.556,124.166C132.31,124.166 127.791,120.384 125.017,116.232Z" style="fill:#e46c78;"/><path d="M155.487,104.251C158.214,103.838 159.536,105.16 159.536,106.813C159.536,108.021 158.035,109.492 155.615,110.197" style="fill:none;stroke:#000;stroke-width:1.2px;"/><path d="M155.615,110.197C154.723,110.456 153.707,110.612 152.595,110.612C148.463,110.612 127.581,106.896 123.756,106.896C122.764,106.896 121.938,107.391 121.938,108.383C121.938,113.424 128.714,124.166 137.556,124.166C146.397,124.166 155.615,110.197 155.615,110.197Z" style="fill:none;stroke:#000;stroke-width:1.2px;"/><path d="M124.984,116.256C124.984,116.256 127.129,114.202 133.931,114.202C139.794,114.202 143.787,116.694 146.603,120.144" style="fill:none;stroke:#000;stroke-width:1.2px;"/></g><path d="M133.197,65.255C132.327,63.129 129.235,62.259 126.432,62.259C119.184,62.259 113.192,69.507 110.486,77.529" style="fill:none;stroke:#000;stroke-width:1.2px;"/><path d="M147.114,64.772C147.79,62.646 150.303,61.293 154.169,61.293C158.228,61.293 163.06,64.192 165.669,69.024" style="fill:none;stroke:#000;stroke-width:1.2px;"/><path d="M99.355,57.589C102.033,55.819 105.935,56.182 108.477,57.725C107.251,54.957 107.297,50.192 108.431,48.467" style="fill:none;stroke:#000;stroke-width:1.2px;"/><g id="Eyes"><path d="M128.655,67.574C135.033,67.574 141.895,72.407 141.895,84.197C141.895,95.988 136.58,101.206 128.365,101.206C120.15,101.206 115.125,94.635 115.125,85.067C115.125,75.499 120.537,67.574 128.655,67.574Z" style="fill:#fff;stroke:#000;stroke-width:1.2px;"/><path d="M115.457,89.152L104.591,91.252" style="fill:none;stroke:#000;stroke-width:1.2px;"/><path d="M154.265,66.125C162.287,66.125 167.216,75.306 167.216,83.327C167.216,91.349 163.446,100.24 155.522,100.24C147.597,100.24 142.282,91.929 142.282,84.1C142.282,75.306 145.471,66.125 154.265,66.125Z" style="fill:#fff;stroke:#000;stroke-width:1.2px;"/><path d="M146.244,87.966C148.03,85.575 151.094,83.463 154.845,83.424" style="fill:none;stroke:#000;stroke-width:1.2px;"/><path d="M146.974,89.88C146.875,89.99 146.865,90.154 146.951,90.275C147.036,90.397 147.194,90.443 147.331,90.386C148.974,89.711 150.658,89.209 152.433,89.127C154.07,89.05 156.168,89.249 156.168,89.249C156.295,89.261 156.417,89.196 156.478,89.084C156.538,88.971 156.526,88.834 156.446,88.734C156.446,88.734 154.793,86.682 152.526,86.682C150.311,86.682 148.786,87.866 146.974,89.88Z"/><ellipse cx="133.632" cy="87.873" rx="2.948" ry="5.523"/><ellipse cx="133.632" cy="87.966" rx="1.498" ry="2.223" style="fill:#fff;"/></g><path d="M108.597,95.153C107.244,91.577 105.75,89.706 103.334,89.706C100.918,89.706 97.632,91.832 97.632,99.853C97.632,107.875 102.561,113.577 105.75,113.577C107.78,113.577 108.94,112.997 110.003,111.837" style="fill:#fcd39e;stroke:#000;stroke-width:1.2px;"/><path d="M102.123,96.253C103.893,96.162 107.297,98.749 107.297,102.833C107.297,104.24 106.843,106.146 105.754,106.146C104.392,106.146 103.984,104.013 103.984,102.062C103.984,99.475 105.553,98.176 105.553,98.176" style="fill:none;stroke:#000;stroke-width:1.2px;"/><path d="M141.315,95.891C141.315,95.891 142.653,93.861 145.084,93.861C147.323,93.861 148.08,95.698 148.08,97.534C148.08,99.467 145.857,101.593 143.441,101.303" style="fill:#fcd39e;stroke:#000;stroke-width:1.2px;"/></g><g><path d="M71.657,59.056C72.315,56.835 73.803,54.273 75.799,54.273C77.497,54.273 78.449,56.302 78.449,57.585C78.449,58.869 77.497,59.78 77.497,61.602C77.497,63.424 78.615,66.612 78.615,71.333C78.615,85.495 71.699,87.4 66.979,87.4C59.525,87.4 53.355,77.503 52.196,76.84C50.568,75.91 40.56,76.633 40.56,72.782C40.56,69.801 45.13,70.9 47.227,71.375C51.207,72.275 54.432,71.582 54.432,70.381C54.432,68.642 42.589,64.501 42.589,61.602C42.589,60.525 43.748,59.904 44.908,59.904C47.599,59.904 57.886,65.975 59.153,64.583C60.471,63.135 51.119,53.196 51.119,50.629C51.119,49.179 52.196,48.31 53.604,48.31C55.53,48.31 61.097,56.654 64.95,59.78C64.478,56.529 60.85,48.359 60.85,46.529C60.85,45.287 61.72,44.638 62.755,44.624C65.861,44.583 68.22,54.046 71.657,59.056L71.657,59.056Z" style="fill:#fcd39e;"/><path d="M67.931,76.095C65.542,73.699 68.479,67.447 72.279,65.743C72.279,65.743 71.285,63.383 71.285,61.229C71.285,59.076 73.066,54.273 75.799,54.273C77.497,54.273 78.449,56.302 78.449,57.585C78.449,58.869 77.497,59.78 77.497,61.602C77.497,63.424 78.615,66.612 78.615,71.333C78.615,85.495 71.699,87.4 66.979,87.4C59.525,87.4 53.355,77.503 52.196,76.84C50.568,75.91 40.56,76.633 40.56,72.782C40.56,69.801 45.13,70.9 47.227,71.375C51.207,72.275 54.432,71.582 54.432,70.381C54.432,68.642 42.589,64.501 42.589,61.602C42.589,60.525 43.748,59.904 44.908,59.904C47.599,59.904 57.886,65.975 59.153,64.583C60.471,63.135 51.119,53.196 51.119,50.629C51.119,49.179 52.196,48.31 53.604,48.31C55.53,48.31 61.097,56.654 64.95,59.78C64.478,56.529 60.85,48.359 60.85,46.529C60.85,45.287 61.72,44.638 62.755,44.624C65.861,44.583 68.22,54.046 71.657,59.056" style="fill:none;stroke:#000;stroke-width:1.2px;"/></g><g><path id="right-arm" serif:id="right arm" d="M108.795,144.032C108.253,142.097 97.44,131.183 87.13,118.167C77.396,105.879 64.198,89.723 65.686,87.66C66.395,86.677 68.266,87.612 72.761,84.233C76.914,81.111 76.973,78.317 78.83,78.317C81.697,78.317 106.474,115.072 109.016,116.399" style="fill:#e31351;stroke:#000;stroke-width:1.2px;"/><path d="M112.048,122.788C113.175,127.459 113.605,134.68 111.353,138.324" style="fill:none;stroke:#000;stroke-width:1.2px;"/><path d="M109.166,131.169C109.564,133.422 109.63,135.74 108.967,138.126" style="fill:none;stroke:#000;stroke-width:1.2px;"/></g></g></svg>