<svg xmlns="http://www.w3.org/2000/svg" viewBox="0 0 600 400"
     width="600" height="400">
  <style>
    <![CDATA[
             text {
             font: bold 128px sans-serif;
             fill: white;
             }
    ]]>
  </style>
  <defs>
	<pattern id="svg-stripes-pattern-14550" patternTransform="rotate(45)" width="100%" height="38" x="0" y="0" patternUnits="userSpaceOnUse">
	  <g>
		<rect x="0" y="0" width="100%" height="19" fill="rgba(80, 80, 80, 1)"></rect>
		<rect x="0" y="19" width="100%" height="19" fill="rgba(248, 239, 0, 1)"></rect>
	  </g>
	</pattern>
    <g id="face" transform="scale(3)">
      <g>
        <path fill="#fff" d="M41.62,48.55v.01c-.56,2.6-2.86,4.53-5.62,4.53s-5.06-1.93-5.62-4.53v-.01l2.68-6.1c.01-.01,.01-.02,.02-.04,.86-.52,1.86-.81,2.92-.81s2.06,.29,2.92,.81h.01l2.69,6.14Z"/>
        <path fill="#fff" d="M47.04,38.39c-.56,.25-1.19,.39-1.84,.41-1.17-1.97-1.89-3.42-2.52-4.77-.87-1.8701-1.76-2.46-2.44-2.45,.43-.97,1.13-1.79,2.02-2.34,.8-.5,1.74-.79,2.74-.79,.88,0,1.7,.22,2.43,.61-.49,1.8-.01,5.37-.39,9.33Z"/>
      </g>
      <g id="skin">
        <circle cx="36" cy="36" r="23" fill="none" stroke="#fcea2b" stroke-linecap="round" stroke-linejoin="round" stroke-width="2"/>
        <path id="skin-2" fill="#fcea2b" d="M36,13c-12.7026,0-23,10.2974-23,23s10.2974,23,23,23,23-10.2974,23-23-10.2974-23-23-23Zm5.62,35.56c-.56,2.6-2.86,4.53-5.62,4.53s-5.06-1.9301-5.62-4.53v-.01l2.68-6.1c.01-.01,.01-.02,.02-.04,.86-.52,1.86-.81,2.92-.81s2.06,.29,2.92,.81h.01l2.69,6.14v.01Zm5.42-10.17c-.56,.25-1.19,.39-1.84,.41-1.17-1.97-1.89-3.42-2.52-4.77-.87-1.8701-1.76-2.46-2.44-2.45,.43-.97,1.13-1.79,2.02-2.34,.8-.5,1.74-.79,2.74-.79,.88,0,1.7,.22,2.43,.61-.49,1.8-.01,5.37-.39,9.33Z"/>
        <path fill="#fcea2b" d="M16.0359,57.8762c.6-3,1.169-6.1968,1.369-7.0968-.4-.8-.8-1.7-1.2-2.5-.2-.4-.6-1.6-1.2-8.3-.2-2-.1-3.1,.5-3.8,.2894-.3703,.7301-.5906,1.2-.6,1.3,0,2.1128,1.1756,2.3896,3.4044,2.7603-7.3627,4.0952-11.5004,6.4169-10.2728,1.1145,.5893,.898,1.837,.898,1.837,1.774-4.0421,5.0508-1.4963,3.3908,1.4442,0,0,1.6297-1.3548,2.658-.029,.6537,.8428,.2595,1.7936-1.036,4.5196,1.6014-1.8518,3.3371-.0749,2.9059,1.7059-2.4426,10.0891-7.8439,16.3489-7.8439,16.3489,0,0-.6175,2.5635-.7412,4.0396l-9.7071-.7009Z"/>
        <path fill="#fcea2b" d="M46.3837,58.5627c-.13-1.48-.8637-4.0227-.8637-4.0227,0,0-5.41-6.26-7.85-16.35-.43-1.78,1.14-3.18,2.53-1.79-1.55-2.92-1.78-4.25-.33-4.76,.12-.04,.23-.06,.37-.06,.68-.01,1.57,.58,2.44,2.45,.63,1.35,1.35,2.8,2.52,4.77,.41,.7,.89,1.47,1.43,2.33,.2-.92,.33-1.84,.41-2.74,.38-3.96-.1-7.53,.39-9.33,.22-.83,.65-1.29,1.46-1.24,.89,.06,1.56,.91,1.4,2.18,0,0,.75-1.49,2.21-.72,1.22,.65,.74,1.89,.41,9.7,.27-2.22,1.09-3.4,2.39-3.4,.46,.01,.91,.23,1.2,.6,.6,.7,.7,1.8,.5,3.8-.6,6.7-1,7.9-1.2,8.3-.4,.8-.8,1.7-1.2,2.5,.2,.9,.7549,4.101,1.3549,7.101l-9.5713,.6816Z"/>
      </g>
      <g id="line">
        <path fill="none" stroke="#000" stroke-linecap="round" stroke-linejoin="round" stroke-width="2" d="M42.2391,58.1437c-1.984,.5579-4.0767,.8563-6.2391,.8563-2.2389,0-4.4031-.3199-6.4494-.9165"/>
        <path fill="none" stroke="#000" stroke-linecap="round" stroke-linejoin="round" stroke-width="2" d="M15.8745,47.1427c-1.8315-3.301-2.8745-7.1-2.8745-11.1427,0-12.7025,10.2975-23,23-23s23,10.2975,23,23c0,4.0427-1.043,7.8418-2.8747,11.1429"/>
        <path fill="none" stroke="#000" stroke-linecap="round" stroke-linejoin="round" stroke-width="2" d="M33.08,42.41c.86-.52,1.86-.81,2.92-.81s2.06,.29,2.92,.81h.01"/>
        <path fill="none" stroke="#000" stroke-linecap="round" stroke-linejoin="round" stroke-width="2" d="M41.62,48.55v.01c-.56,2.6-2.86,4.53-5.62,4.53s-5.06-1.93-5.62-4.53v-.01"/>
        <path fill="none" stroke="#000" stroke-linecap="round" stroke-linejoin="round" stroke-width="2" d="M28.6372,22.3427c-3.076-.8804-6.4735,.3898-8.163,3.2789"/>
        <path fill="none" stroke="#000" stroke-linecap="round" stroke-linejoin="round" stroke-width="2" d="M43.3628,22.3427c3.076-.8804,6.4735,.3898,8.163,3.2789"/>
        <path fill="none" stroke="#000" stroke-linecap="round" stroke-linejoin="round" stroke-width="2" d="M16.1049,56.8794c.6-3,1.1-5.2,1.3-6.1-.4-.8-.8-1.7-1.2-2.5-.2-.4-.6-1.6-1.2-8.3-.2-2-.1-3.1,.5-3.8,.2894-.3703,.7301-.5906,1.2-.6,1.3,0,2.1128,1.1756,2.3896,3.4044,2.7603-7.3627,4.0952-11.5004,6.4169-10.2728,1.1145,.5893,.898,1.837,.898,1.837,1.774-4.0421,5.0508-1.4963,3.3908,1.4442,0,0,1.6297-1.3548,2.658-.029,.6537,.8428,.2595,1.7936-1.036,4.5196,1.6014-1.8518,3.3371-.0749,2.9059,1.7059-2.4426,10.0891-7.8439,16.3489-7.8439,16.3489,0,0-.5556,1.5658-.6793,3.0419"/>
        <path d="M46.9428,33.6341c0,1.0703-.8693,1.9388-1.9388,1.9388s-1.9388-.8678-1.9388-1.9388c0-1.0695,.8693-1.9388,1.9388-1.9388s1.9388,.8693,1.9388,1.9388"/>
        <path fill="none" stroke="#000" stroke-linecap="round" stroke-linejoin="round" stroke-width="2" d="M46.2,57.58c-.13-1.48-.68-3.04-.68-3.04,0,0-5.41-6.26-7.85-16.35-.43-1.78,1.14-3.18,2.53-1.79-1.55-2.92-1.78-4.25-.33-4.76,.12-.04,.23-.06,.37-.06,.68-.01,1.57,.58,2.44,2.45,.63,1.35,1.35,2.8,2.52,4.77,.41,.7,.89,1.47,1.43,2.33,.2-.92,.33-1.84,.41-2.74,.38-3.96-.1-7.53,.39-9.33,.22-.83,.65-1.29,1.46-1.24,.89,.06,1.56,.91,1.4,2.18,0,0,.75-1.49,2.21-.72,1.22,.65,.74,1.89,.41,9.7,.27-2.22,1.09-3.4,2.39-3.4,.46,.01,.91,.23,1.2,.6,.6,.7,.7,1.8,.5,3.8-.6,6.7-1,7.9-1.2,8.3-.4,.8-.8,1.7-1.2,2.5,.2,.9,.7,3.1,1.3,6.1"/>
        <path fill="none" stroke="#000" stroke-miterlimit="10" stroke-width="2" d="M40.24,31.58c.43-.97,1.13-1.79,2.02-2.34,.8-.5,1.74-.79,2.74-.79,.88,0,1.7,.22,2.43,.61"/>
      </g>
    </g>

    <g id="monkey" transform="scale(3)">
      <g id="line-supplement">
        <path fill="none" stroke="#000000" stroke-linecap="round" stroke-linejoin="round" stroke-miterlimit="10" stroke-width="2" d="M19.7452,30.3698c0.7351-1.4356,1.8465-2.6723,3.2355-3.5099c4.2321-2.5519,10.5282-1.0889,13.4909,3.8371 c3.0375-4.9167,9.313-6.349,13.4909-3.8371c1.4555,0.8751,2.5525,2.1665,3.2519,3.6508"/>
      </g>
      <g id="color">
        <path fill="#6A462F" d="M52.1565,19.3322c0.3299,0,7.0229-2.1833,10.3066,3.9209c3.1583,5.8708,1.1583,11.8708-3.4855,14.3115"/>
        <path fill="#6A462F" d="M60.0514,35.4894c0,13.5369-10.7452,24.5106-24,24.5106s-24-10.9737-24-24.5106S22.7966,12,36.0514,12 S60.0514,21.9525,60.0514,35.4894z"/>
        <path fill="#6A462F" d="M19.9174,18.9067c-0.3466,0-7.5022-2.3589-10.8277,4.1191c-2.9366,5.7207-0.4683,12.0981,3.6618,13.9844"/>
        <path fill="#A57939" d="M26.0416,57.0208c-1.017-3.3042-1.4239-8.7844-0.0668-14.7835c-0.3544-0.0699-5.2649-1.1229-7.0265-5.5733 c-1.5688-3.9634,0.1684-8.5784,3.6538-10.6802c4.2321-2.5519,10.5282-1.0889,13.4909,3.8371 c3.0375-4.9167,9.313-6.349,13.4909-3.8371c3.5775,2.151,4.9892,6.8168,3.6538,10.6802c-1.5753,4.5576-6.2779,5.9855-6.7455,6.1191 c0.7217,2.1838,2.4234,8.3483-0.5621,14.2377c-0.5906,1.1649-0.995,0-4.995,2"/>
        <path fill="#FFFFFF" d="M41.9144,49.0171c-0.2036,0.2681-0.7527,6.0217-6.3387,6.0246c-4.9521,0.0025-5.4413-5.6762-5.7048-6.0246 C33.8854,49.0171,37.8999,49.0171,41.9144,49.0171z"/>
        <path fill="#A57939" d="M12.1388,51.9829c1.8841-3.9279-0.1881,0.8747,1.696-3.0531c-0.5664-1.6119-1.2604-4.0223-1.5384-7.0087 c-0.425-4.5648,0.1233-10.4598,1.5384-10.6624c0.555-0.0795,1.4734,0.6838,3.0324,4.7202c2.6006-3.0933,8.3652-6.2699,8.999-5.4998 c0.6228,0.7568-0.0903,2.5375-0.0098,3.503c2.6552-1.2069,3.9497-1.4041,4.2664-1.0505c0.3186,0.3557-0.0824,1.6942-1.7721,4.3494 c3.1158-0.7429,4.1039,0.1181,3.9426,0.8046c-0.6076,2.5859-2.7004,5.9308-6.4366,9.6067 c-2.0968,2.0629-4.741,2.5726-6.3992,2.9133c-0.6095,5.022-0.4795,2.3595-1.089,7.3815"/>
        <path fill="#A57939" d="M59.2614,52.2733c-1.8841-3.9279,0.2803,0.5844-1.6038-3.3435c0.5664-1.6119,1.2604-4.0223,1.5384-7.0087 c0.425-4.5648-0.1233-10.4598-1.5384-10.6624c-0.555-0.0795-1.4734,0.6838-3.0324,4.7202 c-2.6006-3.0933-8.3652-6.2699-8.999-5.4998c-0.6228,0.7568,0.0903,2.5375,0.0098,3.503 c-2.6552-1.2069-3.9497-1.4041-4.2664-1.0505c-0.3186,0.3557,0.0824,1.6942,1.7721,4.3494 c-3.1158-0.7429-4.1039,0.1181-3.9426,0.8046c0.6076,2.5859,2.7004,5.9308,6.4366,9.6067c2.0968,2.0629,4.741,2.5726,6.3992,2.9133 c0.6095,5.022,0.347,2.8686,0.9565,7.8906"/>
        <path fill="#6A462F" d="M58.1736,48.9149C58.16,48.8874,58.1667,48.901,58.1736,48.9149L58.1736,48.9149z"/>
        <path fill="#6A462F" d="M58.1819,48.9315l-6.1469,1.7676c0,0,0.4585,2.7776,1.2932,8.7301l6.6512-6.5154 C58.4483,49.5169,58.2471,49.0627,58.1819,48.9315z"/>
        <path fill="#6A462F" d="M58.1736,48.9149c0.0018,0.0036,0.0057,0.0114,0.0082,0.0165l0,0 C58.1819,48.9315,58.1777,48.9231,58.1736,48.9149z"/>
        <path fill="#6A462F" d="M13.7319,48.9391c0,0-0.0086-0.5805-2.0047,3.7916l5.9928,6.3912 c0.1003,0.1176,0.2917,0.0527,0.3104-0.1007c0.6489-5.3294,1.6584-8.2166,1.6584-8.2166L13.7319,48.9391z"/>
      </g>
      <g id="hair"/>
      <g id="skin"/>
      <g id="skin-shadow"/>
      <g id="line">
        <path fill="none" stroke="#000000" stroke-linecap="round" stroke-linejoin="round" stroke-miterlimit="10" stroke-width="2" d="M52.2639,19.6545c0.3299,0,7.1412-2.2454,10.3066,3.9209c1.7048,3.321,1.2756,6.2407-0.0761,8.8072"/>
        <path fill="none" stroke="#000000" stroke-linecap="round" stroke-linejoin="round" stroke-miterlimit="10" stroke-width="2" d="M19.7361,19.6545c-0.3299,0-7.1412-2.2454-10.3066,3.9209c-1.6112,3.1387-1.3163,5.919-0.1379,8.3815"/>
        <path fill="none" stroke="#000000" stroke-linecap="round" stroke-linejoin="round" stroke-miterlimit="10" stroke-width="2" d="M41.9368,49.0171c-0.2036,0.2681-0.7527,6.0217-6.3387,6.0246c-4.9521,0.0025-5.4413-5.6762-5.7048-6.0246 C33.9078,49.0171,37.9223,49.0171,41.9368,49.0171z"/>
        <circle cx="34.0563" cy="44.5579" r="1"/>
        <circle cx="37.6959" cy="44.5579" r="1"/>
        <path fill="none" stroke="#000000" stroke-linecap="round" stroke-linejoin="round" stroke-miterlimit="10" stroke-width="2" d="M48.849,55.0215C45.1636,57.5323,40.7108,59,35.9151,59c-4.7635,0-9.1887-1.4481-12.8595-3.928"/>
        <path fill="none" stroke="#000000" stroke-linecap="round" stroke-linejoin="round" stroke-miterlimit="10" stroke-width="2" d="M14.9925,26.4342C18.6228,18.5069,26.6258,13,35.915,13c9.2192,0,17.1715,5.4242,20.8396,13.2552"/>
        <path fill="none" stroke="#000000" stroke-linecap="round" stroke-linejoin="round" stroke-miterlimit="10" stroke-width="2" d="M59.2838,52.2733c-1.8841-3.9279,0.2803,0.5844-1.6038-3.3435c0.5664-1.6119,1.2604-4.0223,1.5384-7.0087 c0.425-4.5648-0.1233-10.4598-1.5384-10.6624c-0.555-0.0795-1.4734,0.6838-3.0324,4.7202 c-2.6006-3.0933-8.3652-6.2699-8.999-5.4998c-0.6228,0.7568,0.0903,2.5375,0.0098,3.503 c-2.6552-1.2069-3.9497-1.4041-4.2664-1.0505c-0.3186,0.3557,0.0824,1.6942,1.7721,4.3494 c-3.1158-0.7429-4.1039,0.1181-3.9426,0.8046c0.6076,2.5859,2.7004,5.9308,6.4366,9.6067c2.0968,2.0629,4.741,2.5726,6.3992,2.9133 c0.6095,5.022,0.347,2.8686,0.9565,7.8906"/>
        <path fill="none" stroke="#000000" stroke-linecap="round" stroke-linejoin="round" stroke-miterlimit="10" stroke-width="2" d="M12.3926,51.9829c1.8841-3.9279-0.4196,0.8747,1.4645-3.0531c-0.5664-1.6119-1.2604-4.0223-1.5384-7.0087 c-0.425-4.5648,0.1233-10.4598,1.5384-10.6624c0.555-0.0795,1.4734,0.6838,3.0324,4.7202c2.6006-3.0933,8.3652-6.2699,8.999-5.4998 c0.6228,0.7568-0.0903,2.5375-0.0098,3.503c2.6552-1.2069,3.9497-1.4041,4.2664-1.0505c0.3186,0.3557-0.0824,1.6942-1.7721,4.3494 c3.1158-0.7429,4.1039,0.1181,3.9426,0.8046c-0.6076,2.5859-2.7004,5.9308-6.4366,9.6067 c-2.0968,2.0629-4.741,2.5726-6.3992,2.9133c-0.6095,5.022-0.3481,2.8686-0.9576,7.8906"/>
      </g>
    </g>

  </defs>
  <rect x="0" y="0" width="100%" height="100%"
        fill="url(#svg-stripes-pattern-14550)"></rect>
  <use x="100" y="100" href="#monkey" />
  <use x="300" y="100" href="#face" />
</svg>
